<?xml version="1.0" encoding="utf-8"?>
<!-- Generator: Adobe Illustrator 18.1.1, SVG Export Plug-In . SVG Version: 6.00 Build 0)  -->
<!DOCTYPE svg PUBLIC "-//W3C//DTD SVG 1.0//EN" "http://www.w3.org/TR/2001/REC-SVG-20010904/DTD/svg10.dtd">
<svg version="1.0" id="Layer_1" xmlns="http://www.w3.org/2000/svg" xmlns:xlink="http://www.w3.org/1999/xlink" x="0px" y="0px"
	 viewBox="0 0 146.8 51.6" enable-background="new 0 0 146.8 51.6" xml:space="preserve">
<g>
	<path fill="#010101" d="M4.1,22.8c0.1,0.1,0.3,0.1,0.5,0.2C4.8,23,5,23,5.3,23c0.2,0,0.4,0,0.6,0c0.5,0,1-0.2,1.5-0.4
		c0.5-0.2,1-0.6,1.5-1.1c0.5-0.5,1-1.1,1.5-1.8c0.5-0.7,1-1.6,1.4-2.6c0.1,0.2,0.2,0.4,0.3,0.7c0.1,0.3,0.1,0.5,0.2,0.8
		c0.1,0.3,0.1,0.6,0.2,0.9c0,0.3,0.1,0.6,0.2,0.9c0.1,0.3,0.1,0.5,0.2,0.8c0.1,0.2,0.2,0.4,0.4,0.6c0.2,0.2,0.3,0.3,0.6,0.4
		c0.2,0.1,0.5,0.1,0.8,0.1c0.3,0,0.6-0.1,0.9-0.2c0.3-0.1,0.6-0.2,0.8-0.3c0.3-0.1,0.5-0.2,0.8-0.4c0.2-0.1,0.3-0.2,0.4-0.3
		c0,0,0.1,0.1,0.1,0.1c0.2,0.2,0.5,0.2,0.9,0.2c0.3,0,0.5-0.1,0.8-0.2c0.3-0.1,0.5-0.3,0.8-0.5c0.2-0.2,0.5-0.4,0.7-0.7
		c0.2-0.2,0.4-0.5,0.6-0.8c0.2-0.3,0.3-0.6,0.4-0.8c0.1-0.3,0.2-0.6,0.3-0.9c0.1-0.3,0.1-0.6,0.1-0.9c0-0.3,0-0.6-0.1-0.8l0.1-0.1
		c0.1,0.1,0.3,0.2,0.5,0.4c0.2,0.1,0.4,0.3,0.6,0.5c0.1,0.1,0.3,0.3,0.4,0.4c0,0,0,0.1,0,0.1c-0.1,0.3-0.2,0.6-0.3,0.9
		c-0.1,0.3-0.2,0.6-0.3,0.8c-0.1,0.3-0.2,0.5-0.2,0.7c0,0.2-0.1,0.4-0.1,0.5c0,0.2,0,0.3,0,0.5c0,0.1,0.1,0.2,0.2,0.3
		c0.1,0.1,0.2,0.1,0.4,0.1c0.1,0,0.3-0.1,0.4-0.1c0.1-0.1,0.3-0.2,0.4-0.4c0.5-0.7,0.8-1.3,1.1-1.7c0.3-0.5,0.5-0.8,0.7-1.1
		c0.2-0.3,0.3-0.5,0.4-0.7c0.1-0.1,0.2-0.3,0.3-0.3l0.1,0c-0.2,0.4-0.3,0.9-0.5,1.2c-0.1,0.2-0.1,0.3-0.2,0.5
		c-0.1,0.2-0.1,0.3-0.2,0.5c-0.1,0.1-0.1,0.3-0.1,0.4c0,0.1-0.1,0.2-0.1,0.3c0,0.1-0.1,0.3-0.1,0.5c0,0.2,0,0.3,0,0.4
		c0,0.1,0.1,0.2,0.1,0.3c0.1,0.1,0.2,0.1,0.3,0.1c0.2,0,0.4-0.1,0.5-0.1c0.2-0.1,0.3-0.2,0.5-0.4l2.2-3.8l0.1,0
		c-0.1,0.3-0.2,0.7-0.3,1c-0.1,0.3-0.2,0.7-0.3,1c-0.1,0.3-0.1,0.6-0.2,0.9c0,0.3,0,0.5,0,0.7c0,0.2,0.1,0.3,0.2,0.4
		c0.1,0.1,0.2,0.1,0.4,0.1c0.3,0,0.6-0.1,0.9-0.2c0.3-0.1,0.5-0.3,0.8-0.4c0.3-0.2,0.5-0.3,0.7-0.5c0.2-0.2,0.5-0.4,0.7-0.6l0.3-1.7
		c-0.3,0.3-0.6,0.6-0.8,0.8c-0.1,0.1-0.2,0.2-0.4,0.3c-0.1,0.1-0.2,0.2-0.4,0.3c-0.1,0.1-0.2,0.1-0.4,0.2c-0.1,0.1-0.2,0.1-0.3,0.1
		c-0.1,0-0.1-0.1-0.2-0.2c0-0.2,0-0.4,0.1-0.6c0.1-0.3,0.2-0.6,0.3-0.9c0.1-0.3,0.2-0.6,0.3-0.9c0.1-0.3,0.2-0.6,0.3-0.9
		c0.1-0.3,0.2-0.6,0.3-0.9c0.1-0.2,0-0.4-0.1-0.5c-0.1-0.1-0.3-0.1-0.5-0.1c-0.2,0-0.4,0.1-0.5,0.2c-0.2,0.1-0.3,0.3-0.5,0.5
		c-0.2,0.2-0.4,0.4-0.6,0.7c-0.2,0.3-0.4,0.5-0.6,0.8c-0.2,0.2-0.4,0.5-0.5,0.6c-0.1,0.2-0.2,0.3-0.2,0.3l-0.1-0.1c0,0,0,0,0-0.1
		c0,0,0-0.1,0.1-0.2c0.1-0.2,0.1-0.3,0.2-0.5c0.1-0.2,0.1-0.3,0.2-0.5c0.1-0.2,0.1-0.3,0.2-0.5c0.1-0.2,0.1-0.3,0.2-0.5
		c0.1-0.2,0-0.4-0.1-0.5c-0.1-0.1-0.3-0.1-0.4-0.1c-0.2,0-0.4,0.1-0.6,0.2c-0.2,0.1-0.4,0.3-0.5,0.5c-0.2,0.2-0.4,0.4-0.6,0.7
		c-0.2,0.3-0.4,0.5-0.6,0.8c-0.2,0.2-0.3,0.5-0.5,0.6c-0.1,0.2-0.2,0.3-0.2,0.3l-0.1-0.1c0.1-0.3,0.2-0.6,0.3-0.9
		c0-0.1,0.1-0.2,0.1-0.4c0-0.1,0.1-0.2,0.1-0.4c0-0.1,0.1-0.2,0.1-0.3c0-0.1,0.1-0.2,0.1-0.3c0-0.1,0.1-0.3,0.1-0.3
		c0-0.1,0-0.1,0-0.2c0,0-0.1-0.1-0.2-0.1c-0.1,0-0.2,0-0.4,0c-0.1,0-0.2,0-0.3,0c-0.1,0-0.1,0.1-0.2,0.1c-0.1,0.1-0.1,0.1-0.2,0.2
		c-0.1,0.1-0.1,0.2-0.2,0.4c-0.1,0.2-0.2,0.3-0.3,0.6c-0.1,0.2-0.2,0.3-0.2,0.5c0-0.1-0.1-0.1-0.1-0.2c-0.2-0.3-0.4-0.5-0.7-0.7
		c-0.3-0.2-0.6-0.4-0.9-0.5c-0.3-0.1-0.7-0.1-1.1-0.1c-0.5,0-1,0.2-1.4,0.4c-0.4,0.2-0.8,0.5-1.2,0.9c-0.4,0.4-0.7,0.8-0.9,1.2
		c-0.3,0.5-0.4,1-0.6,1.5c-0.1,0.4-0.1,0.7-0.1,1.1c0,0.1,0,0.2,0,0.3c-0.2,0.1-0.4,0.2-0.6,0.3c-0.2,0.1-0.5,0.2-0.7,0.3
		c-0.2,0.1-0.4,0.1-0.6,0.1c-0.3,0-0.5-0.1-0.7-0.2c-0.2-0.2-0.3-0.4-0.4-0.8c-0.1-0.4-0.2-0.8-0.3-1.4c-0.1-0.5-0.2-1.2-0.3-1.9
		c0.6-0.1,1.2-0.2,1.7-0.3c0.5-0.1,1-0.3,1.4-0.5c0.4-0.2,0.8-0.5,1.1-0.7c0.3-0.3,0.6-0.6,0.8-1c0.2-0.4,0.4-0.8,0.6-1.2
		c0.2-0.4,0.3-0.9,0.4-1.5c0-0.2,0.1-0.3,0.1-0.5c0-0.2,0.1-0.3,0.1-0.4c0,0,0-0.1,0-0.2c0-0.1,0-0.1-0.1-0.2c0-0.1-0.1-0.1-0.2-0.2
		c-0.1,0-0.2-0.1-0.4,0c-0.2,0-0.4,0.1-0.6,0.1c-0.1,0-0.2,0.1-0.3,0.2C18.1,10,18,10.1,18,10.2c0,0.1-0.1,0.3-0.1,0.6
		c-0.1,0.6-0.3,1.1-0.5,1.5c-0.2,0.4-0.4,0.8-0.6,1.1c-0.2,0.3-0.5,0.5-0.8,0.7c-0.3,0.2-0.6,0.4-0.9,0.5c-0.3,0.1-0.7,0.2-1.1,0.3
		c-0.4,0.1-0.8,0.1-1.3,0.2c0.1-0.4,0.2-0.8,0.4-1.2c0.1-0.3,0.2-0.7,0.4-1.2c0.1-0.4,0.3-0.8,0.4-1.3c0-0.1,0.1-0.3,0.1-0.4
		c0-0.2,0.1-0.3,0.1-0.5c0-0.1,0-0.2,0-0.2c0-0.1,0-0.1-0.1-0.2c0-0.1-0.1-0.1-0.2-0.1c-0.1,0-0.2,0-0.4,0c-0.3,0-0.7,0.1-1.1,0.1
		c-0.4,0.1-0.8,0.2-1.3,0.3c-0.5,0.1-0.9,0.3-1.4,0.6c-0.5,0.2-0.9,0.5-1.3,0.9c-0.4,0.3-0.8,0.8-1.2,1.2c-0.4,0.5-0.6,1-0.9,1.7
		c0,0,0,0,0,0l0,0.1c0,0,0,0.1,0,0.2c0,0.1,0,0.1,0.1,0.2c0.1,0.1,0.2,0.1,0.3,0.1c0.1,0,0.3,0,0.6,0c0.2,0,0.3-0.1,0.5-0.1
		c0.1-0.1,0.2-0.1,0.3-0.2c0.1-0.1,0.1-0.1,0.1-0.2c0-0.1,0-0.1,0.1-0.1c0.1-0.2,0.1-0.5,0.3-0.7c0.1-0.3,0.3-0.5,0.4-0.8
		c0.2-0.3,0.4-0.5,0.6-0.7c0.2-0.2,0.5-0.5,0.8-0.7c0.3-0.2,0.6-0.4,0.9-0.5c0.3-0.1,0.7-0.2,1.1-0.2l-0.2,0.6
		c-0.2,0.7-0.5,1.5-0.8,2.3c-0.3,0.8-0.6,1.5-0.9,2.2c-0.3,0.7-0.6,1.4-1,2c-0.3,0.6-0.7,1.2-1.1,1.6c-0.4,0.5-0.7,0.9-1.1,1.1
		c-0.4,0.3-0.8,0.5-1.2,0.5c-0.1,0-0.3,0-0.4,0c-0.1,0-0.3-0.1-0.4-0.1c0,0,0,0-0.1,0c-0.1,0-0.1,0-0.2,0.1c-0.1,0-0.1,0.1-0.2,0.1
		c-0.1,0.1-0.1,0.1-0.2,0.2c-0.1,0.1-0.1,0.1-0.1,0.1c-0.1,0.1-0.2,0.2-0.3,0.3C4.1,22.2,4,22.3,4,22.4C3.9,22.6,4,22.7,4.1,22.8z
		 M18.5,18.7c0.1-0.3,0.2-0.6,0.3-0.9c0.1-0.3,0.3-0.6,0.5-0.9c0.2-0.3,0.4-0.5,0.6-0.7c0.2-0.2,0.4-0.3,0.6-0.3
		c0.1,0,0.2,0,0.3,0.1c0.1,0.1,0.1,0.2,0.2,0.3c0,0.1,0,0.3,0,0.5c0,0.2,0,0.4-0.1,0.6c-0.1,0.3-0.2,0.6-0.3,0.9
		c-0.1,0.3-0.3,0.6-0.5,0.8c-0.2,0.3-0.3,0.5-0.5,0.7c-0.2,0.2-0.3,0.3-0.5,0.3c-0.2,0-0.3,0-0.4-0.1c-0.1-0.1-0.2-0.2-0.2-0.3
		c0-0.1-0.1-0.3-0.1-0.4C18.4,19,18.5,18.9,18.5,18.7z"/>
	<path fill="#010101" d="M35.3,13.2c0,0,0.1,0.1,0.2,0.1c0.2,0,0.4,0,0.5,0c0.1,0,0.2,0,0.3,0c0.1,0,0.2,0,0.2,0c0.1,0,0.2,0,0.3,0
		c-0.1,0.3-0.2,0.6-0.3,1c-0.1,0.3-0.2,0.6-0.2,0.9c-0.2,0.7-0.3,1.4-0.3,2c-0.1,0.6,0,1.1,0,1.5c0.1,0.4,0.2,0.7,0.4,0.9
		c0.2,0.2,0.5,0.3,0.8,0.2c0.2,0,0.4-0.1,0.6-0.1c0.2-0.1,0.5-0.2,0.8-0.4c0.3-0.2,0.6-0.3,1-0.6c0.3-0.2,0.5-0.3,0.8-0.5
		c0,0.2-0.1,0.3-0.1,0.5c0,0.2,0,0.3,0.1,0.4c0.1,0.1,0.2,0.2,0.3,0.3c0.1,0.1,0.3,0.1,0.6,0.1c0.3,0,0.5-0.1,0.9-0.2
		c0.3-0.1,0.6-0.3,0.9-0.4c0.3-0.2,0.6-0.4,0.9-0.6c0.2-0.1,0.3-0.2,0.4-0.3c0,0,0,0,0,0.1c0.1,0.4,0.2,0.7,0.3,0.9
		c0.2,0.2,0.4,0.3,0.6,0.3c0.2,0,0.3-0.1,0.5-0.1c0.2-0.1,0.4-0.1,0.6-0.2c0.2-0.1,0.4-0.2,0.6-0.3c0.2-0.1,0.4-0.2,0.6-0.3
		c0.4-0.3,0.9-0.6,1.4-0.9l-0.2-1.4c-0.4,0.3-0.7,0.5-1,0.8c-0.1,0.1-0.3,0.2-0.4,0.3c-0.1,0.1-0.3,0.2-0.4,0.3
		c-0.1,0.1-0.3,0.1-0.4,0.2c-0.1,0-0.2,0.1-0.3,0.1c0,0-0.1,0-0.1-0.1c0-0.1,0-0.1-0.1-0.2c0-0.1,0-0.2,0-0.3c0-0.1,0-0.2,0-0.4
		l0-0.1c0-0.1,0.1-0.2,0.1-0.3c0-0.1,0.1-0.2,0.1-0.3c0-0.1,0.1-0.2,0.1-0.3c0-0.1,0.1-0.1,0.1-0.2c0.3-0.4,0.6-0.9,1-1.4
		c0.3-0.5,0.7-0.9,1-1.4c0.3-0.5,0.7-1,1-1.5c0.3-0.5,0.6-1,0.9-1.5c0.3-0.5,0.5-1,0.7-1.4c0.2-0.5,0.4-0.9,0.5-1.4
		c0-0.2,0.1-0.4,0.1-0.6c0-0.2,0-0.4,0-0.5c0-0.1-0.1-0.3-0.2-0.3c-0.1-0.1-0.3-0.1-0.4-0.1c-0.3,0-0.6,0.1-0.9,0.3
		c-0.3,0.2-0.6,0.5-1,0.8c-0.3,0.3-0.7,0.7-1,1.2c-0.3,0.4-0.6,0.9-1,1.4c-0.3,0.5-0.6,1-0.9,1.6c-0.3,0.5-0.5,1.1-0.8,1.6
		c-0.2,0.5-0.4,1.1-0.6,1.6c-0.2,0.5-0.3,1-0.4,1.4c-0.1,0.5-0.2,1.1-0.2,1.6c0,0,0,0.1,0,0.1c-0.2,0.2-0.4,0.4-0.7,0.5
		c-0.2,0.2-0.5,0.3-0.7,0.5c-0.2,0.1-0.4,0.2-0.6,0.2c-0.1,0-0.2,0-0.2-0.2c0-0.1,0-0.3,0.1-0.5c0.1-0.2,0.1-0.5,0.2-0.7
		c0.1-0.3,0.2-0.6,0.4-0.9c0.1-0.3,0.3-0.6,0.4-0.9c0.1-0.3,0.3-0.6,0.4-0.8c0.1-0.3,0.2-0.5,0.3-0.7c0.1-0.2,0.1-0.4,0.2-0.5
		c0-0.1,0-0.2,0-0.3c0-0.1-0.2-0.1-0.4-0.1c-0.1,0-0.2,0-0.4,0.1c-0.1,0-0.3,0.1-0.4,0.2c-0.1,0.1-0.3,0.1-0.4,0.2
		c-0.1,0.1-0.2,0.2-0.3,0.3c-0.2,0.4-0.3,0.8-0.6,1.2c-0.2,0.4-0.4,0.9-0.6,1.3c-0.1,0.2-0.1,0.3-0.2,0.5c-0.1,0.1-0.2,0.2-0.3,0.3
		c-0.2,0.2-0.4,0.3-0.6,0.5c-0.2,0.2-0.4,0.3-0.6,0.4c-0.2,0.1-0.4,0.2-0.6,0.3c-0.2,0.1-0.4,0.2-0.5,0.2c-0.2,0.1-0.3,0.1-0.4,0.1
		c-0.2,0-0.3,0-0.4,0c-0.1,0-0.2-0.1-0.3-0.2c-0.1-0.1-0.1-0.2-0.1-0.4c0-0.2,0-0.4,0.1-0.6c0-0.1,0.1-0.2,0.1-0.3
		c0-0.1,0.1-0.2,0.1-0.4c0-0.1,0.1-0.3,0.1-0.4c0-0.1,0.1-0.3,0.1-0.4c0.1-0.3,0.2-0.6,0.3-0.9c0.1-0.2,0.3-0.3,0.5-0.5
		c0.2-0.2,0.3-0.4,0.5-0.6l2.6-0.2c0.1,0,0.2-0.1,0.3-0.2c0.1-0.1,0.2-0.3,0.2-0.4c0-0.1,0-0.2,0-0.3c0-0.1-0.1-0.1-0.2-0.1
		c-0.1,0-0.2,0-0.3,0c-0.1,0-0.2,0-0.4,0c-0.1,0-0.3,0-0.4,0c-0.1,0-0.3,0-0.4,0c-0.1,0-0.2,0-0.3,0c-0.1,0-0.2,0-0.2,0
		c0.2-0.3,0.4-0.6,0.7-0.9c0.2-0.3,0.4-0.6,0.6-0.8c0.2-0.3,0.3-0.5,0.4-0.8C41.9,9.4,42,9.1,42,8.9c0.1-0.3,0.1-0.5,0.1-0.8
		s0-0.5-0.1-0.6c-0.1-0.2-0.2-0.3-0.3-0.4c-0.1-0.1-0.3-0.1-0.5-0.1c-0.3,0-0.6,0.2-1,0.5c-0.3,0.3-0.7,0.7-1,1.2
		c-0.3,0.5-0.7,1-1,1.7c-0.3,0.6-0.6,1.2-0.9,1.9c0,0-0.1,0-0.2,0c-0.1,0-0.3,0-0.4,0c-0.1,0-0.3,0-0.5,0c-0.2,0-0.3,0-0.5,0.1
		c-0.1,0-0.3,0.1-0.4,0.1c-0.1,0.1-0.2,0.1-0.2,0.2c0,0,0,0.1,0,0.2c0,0.1,0,0.1,0,0.2C35.3,13.1,35.3,13.1,35.3,13.2z M47.2,11.9
		c0.2-0.5,0.4-1,0.6-1.4c0.2-0.5,0.4-0.9,0.7-1.3c0.2-0.4,0.5-0.8,0.7-1.1c0.2-0.3,0.4-0.6,0.6-0.8C50,7.1,50.2,7,50.3,7
		c0,0,0,0,0,0.1c0,0.1,0,0.2-0.1,0.4c-0.1,0.4-0.3,0.9-0.6,1.4c-0.3,0.5-0.6,1-0.9,1.5c-0.3,0.5-0.6,1-1,1.5
		c-0.3,0.5-0.7,0.9-0.9,1.3C46.9,12.9,47.1,12.4,47.2,11.9z M39.2,10.9c0.2-0.4,0.4-0.8,0.6-1.1c0.2-0.3,0.4-0.6,0.5-0.9
		c0.2-0.2,0.3-0.3,0.4-0.4c0.1,0,0.1,0,0.2,0c0,0,0.1,0.1,0.1,0.1c0,0.1,0,0.1,0,0.2c0,0.1,0,0.1,0,0.2c0,0.2-0.1,0.3-0.3,0.6
		c-0.1,0.2-0.3,0.5-0.5,0.8c-0.2,0.3-0.4,0.6-0.6,0.9c-0.2,0.3-0.4,0.6-0.6,0.8c-0.1,0-0.1,0-0.2,0c-0.1,0-0.1,0-0.2,0
		C38.8,11.7,39,11.3,39.2,10.9z"/>
	<path fill="#010101" d="M44.4,11.5c0.2,0,0.4-0.1,0.6-0.2c0.2-0.1,0.3-0.2,0.5-0.3c0.1-0.1,0.2-0.3,0.3-0.4
		c0.1-0.2,0.1-0.3,0.2-0.5c0-0.2,0-0.3,0-0.4c0-0.1-0.1-0.2-0.2-0.3c-0.1-0.1-0.2-0.1-0.3-0.1c-0.1,0-0.3,0-0.4,0
		c-0.2,0-0.5,0.1-0.7,0.2c-0.2,0.1-0.3,0.2-0.5,0.3c-0.1,0.1-0.2,0.3-0.3,0.4c-0.1,0.1-0.1,0.3-0.2,0.4c-0.1,0.3,0,0.6,0.1,0.8
		C43.8,11.5,44.1,11.6,44.4,11.5z"/>
	<path fill="#010101" d="M112.6,12.7c0.2-0.1,0.5-0.3,0.7-0.4c0.2-0.2,0.4-0.3,0.7-0.5l0.4-0.3c0,0.1,0,0.1,0,0.2
		c0.1,0.4,0.2,0.7,0.4,0.9c0.2,0.2,0.5,0.3,0.8,0.2c0.2,0,0.4-0.1,0.6-0.1c0.2-0.1,0.5-0.2,0.8-0.4c0.3-0.2,0.6-0.3,1-0.6
		c0.4-0.2,0.8-0.5,1.3-0.8l0.4-1.8c-0.2,0.2-0.4,0.3-0.6,0.5c-0.2,0.2-0.4,0.3-0.6,0.5c-0.2,0.2-0.4,0.3-0.6,0.4
		c-0.2,0.1-0.4,0.2-0.6,0.3c-0.2,0.1-0.4,0.2-0.5,0.2c-0.2,0.1-0.3,0.1-0.4,0.1c-0.2,0-0.3,0-0.4,0c-0.1,0-0.2-0.1-0.3-0.2
		c-0.1-0.1-0.1-0.2-0.1-0.4c0-0.2,0-0.4,0.1-0.6c0-0.1,0.1-0.2,0.1-0.3c0-0.1,0.1-0.2,0.1-0.4c0-0.1,0.1-0.3,0.1-0.4
		c0-0.1,0.1-0.3,0.1-0.4c0.1-0.3,0.2-0.6,0.3-0.9c0.1-0.2,0.3-0.3,0.5-0.5c0.2-0.2,0.3-0.4,0.5-0.6l2.6-0.2c0.1,0,0.2-0.1,0.3-0.2
		c0.1-0.1,0.2-0.3,0.2-0.4c0-0.1,0-0.2,0-0.3c0-0.1-0.1-0.1-0.2-0.1c-0.1,0-0.2,0-0.3,0c-0.1,0-0.2,0-0.4,0c-0.1,0-0.3,0-0.4,0
		c-0.1,0-0.3,0-0.4,0c-0.1,0-0.2,0-0.3,0c-0.1,0-0.2,0-0.2,0c0.2-0.3,0.4-0.6,0.7-0.9c0.2-0.3,0.4-0.6,0.6-0.8
		c0.2-0.3,0.3-0.5,0.4-0.8c0.1-0.3,0.2-0.5,0.3-0.7c0.1-0.3,0.1-0.5,0.1-0.8s0-0.5-0.1-0.6c-0.1-0.2-0.2-0.3-0.3-0.4
		C119.9,0,119.8,0,119.6,0c-0.3,0-0.6,0.2-1,0.5c-0.3,0.3-0.7,0.7-1,1.2c-0.3,0.5-0.7,1-1,1.7c-0.3,0.6-0.6,1.2-0.9,1.9
		c0,0-0.1,0-0.2,0c-0.1,0-0.3,0-0.4,0c-0.1,0-0.3,0-0.5,0c-0.2,0-0.3,0-0.5,0.1c-0.1,0-0.3,0.1-0.4,0.1c-0.1,0.1-0.2,0.1-0.2,0.2
		c0,0,0,0.1,0,0.2c0,0.1,0,0.1,0,0.2c0,0.1,0,0.1,0.1,0.1c0,0,0.1,0.1,0.2,0.1c0.2,0,0.4,0,0.5,0c0.1,0,0.2,0,0.3,0
		c0.1,0,0.2,0,0.2,0c0.1,0,0.2,0,0.3,0c-0.1,0.3-0.2,0.6-0.3,1c-0.1,0.3-0.2,0.6-0.2,0.9c-0.2,0.7-0.3,1.3-0.3,1.9
		c-0.2,0.2-0.4,0.4-0.6,0.5c-0.1,0.1-0.2,0.2-0.4,0.3c-0.1,0.1-0.2,0.2-0.4,0.3c-0.1,0.1-0.2,0.1-0.3,0.2c-0.1,0-0.2,0.1-0.2,0.1
		c-0.1,0-0.2-0.1-0.3-0.3c0-0.2,0-0.4,0.1-0.7c0-0.2,0.1-0.4,0.2-0.6c0.1-0.2,0.1-0.4,0.2-0.6c0.1-0.2,0.2-0.4,0.3-0.6
		c0.1-0.2,0.2-0.4,0.2-0.6c0.1-0.2,0.1-0.3,0.2-0.4c0-0.1,0.1-0.2,0.1-0.3c0.1-0.4,0.1-0.6,0-0.8c-0.1-0.2-0.2-0.3-0.5-0.3
		c-0.2,0-0.4,0.1-0.6,0.2c-0.2,0.1-0.4,0.3-0.6,0.6c0,0.1-0.1,0.2-0.2,0.3c-0.1,0.1-0.2,0.3-0.3,0.4c-0.1,0.2-0.2,0.3-0.4,0.5
		c-0.1,0.2-0.2,0.3-0.4,0.5c-0.1,0.2-0.2,0.3-0.3,0.4c-0.1,0.1-0.1,0.2-0.2,0.3l-0.1,0c0,0,0-0.1,0.1-0.2c0-0.1,0.1-0.2,0.1-0.3
		c0.1-0.1,0.1-0.3,0.2-0.4c0.1-0.2,0.1-0.3,0.2-0.5c0.1-0.1,0.1-0.3,0.1-0.4c0-0.1,0.1-0.2,0.1-0.3c0.1-0.3,0.1-0.5,0-0.6
		c-0.1-0.1-0.2-0.2-0.4-0.2c-0.2,0-0.4,0.1-0.6,0.3c-0.2,0.2-0.3,0.3-0.4,0.6c-0.1,0.3-0.3,0.6-0.4,1c-0.2,0.4-0.3,0.8-0.5,1.2
		c-0.1,0.2-0.2,0.5-0.2,0.7c-0.2,0.2-0.4,0.3-0.6,0.5c-0.3,0.2-0.6,0.4-0.9,0.6c-0.3,0.2-0.6,0.4-1,0.5c-0.3,0.1-0.6,0.2-0.9,0.2
		c-0.1,0-0.2,0-0.2,0c-0.1,0-0.1,0-0.2-0.1c-0.1,0-0.1-0.1-0.2-0.2c0-0.1-0.1-0.2-0.1-0.3c0.4-0.1,0.8-0.3,1.2-0.6
		c0.4-0.2,0.7-0.5,1-0.8c0.3-0.3,0.6-0.6,0.8-0.9c0.2-0.3,0.3-0.6,0.4-0.9c0.1-0.3,0.1-0.5,0-0.7c0-0.2-0.1-0.4-0.2-0.5
		c-0.1-0.1-0.3-0.2-0.5-0.3C106.4,7,106.2,7,106,7c-0.3,0-0.6,0.1-0.9,0.2c-0.3,0.1-0.5,0.3-0.8,0.5c-0.2,0.2-0.5,0.5-0.7,0.7
		c-0.2,0.3-0.4,0.6-0.6,0.8c-0.2,0.3-0.3,0.6-0.4,0.9c-0.1,0.3-0.2,0.6-0.3,0.8c0,0.2-0.1,0.3-0.1,0.5c0,0,0,0,0,0
		c-0.1,0.1-0.2,0.2-0.4,0.3c-0.1,0.1-0.2,0.2-0.4,0.3c-0.1,0.1-0.2,0.1-0.4,0.2c-0.1,0.1-0.2,0.1-0.3,0.1c-0.1,0-0.1-0.1-0.2-0.2
		c0-0.2,0-0.4,0.1-0.6c0.1-0.3,0.2-0.6,0.3-0.9c0.1-0.3,0.2-0.6,0.3-0.9c0.1-0.3,0.2-0.6,0.3-0.9c0.1-0.3,0.2-0.6,0.3-0.9
		c0.1-0.2,0-0.4-0.1-0.5c-0.1-0.1-0.3-0.1-0.5-0.1c-0.2,0-0.4,0.1-0.5,0.2c-0.2,0.1-0.3,0.3-0.5,0.5c-0.2,0.2-0.4,0.4-0.6,0.7
		c-0.2,0.3-0.4,0.5-0.6,0.8c-0.2,0.2-0.4,0.5-0.5,0.6c-0.1,0.2-0.2,0.3-0.2,0.3l-0.1-0.1c0,0,0,0,0-0.1c0,0,0-0.1,0.1-0.2
		c0.1-0.2,0.1-0.3,0.2-0.5c0.1-0.2,0.1-0.3,0.2-0.5C98.9,9.1,99,8.9,99,8.8c0.1-0.2,0.1-0.3,0.2-0.5c0.1-0.2,0-0.4-0.1-0.5
		c-0.1-0.1-0.3-0.1-0.4-0.1c-0.2,0-0.4,0.1-0.6,0.2c-0.2,0.1-0.4,0.3-0.5,0.5c-0.2,0.2-0.4,0.4-0.6,0.7c-0.2,0.3-0.4,0.5-0.6,0.8
		c-0.2,0.2-0.3,0.5-0.5,0.6c-0.1,0.2-0.2,0.3-0.2,0.3l-0.1-0.1c0.1-0.3,0.2-0.6,0.3-0.9c0-0.1,0.1-0.2,0.1-0.4
		c0-0.1,0.1-0.2,0.1-0.4c0-0.1,0.1-0.2,0.1-0.3c0-0.1,0.1-0.2,0.1-0.3c0-0.1,0.1-0.3,0.1-0.3c0-0.1,0-0.1,0-0.2c0,0-0.1-0.1-0.2-0.1
		c-0.1,0-0.2,0-0.4,0c-0.1,0-0.2,0-0.3,0C95.6,8,95.5,8,95.4,8c-0.1,0.1-0.1,0.1-0.2,0.2c-0.1,0.1-0.1,0.2-0.2,0.4
		c-0.1,0.2-0.2,0.3-0.3,0.6c-0.1,0.2-0.2,0.5-0.3,0.8c-0.1,0.3-0.2,0.6-0.4,0.9c-0.1,0.3-0.2,0.6-0.3,0.9c0,0,0,0.1,0,0.1
		c-0.1,0.1-0.2,0.2-0.3,0.3c-0.3,0.2-0.6,0.4-0.9,0.6c-0.3,0.2-0.6,0.4-1,0.5c-0.3,0.1-0.6,0.2-0.9,0.2c-0.1,0-0.2,0-0.2,0
		c-0.1,0-0.1,0-0.2-0.1c-0.1,0-0.1-0.1-0.2-0.2c0-0.1-0.1-0.2-0.1-0.3c0.4-0.1,0.8-0.3,1.2-0.6c0.4-0.2,0.7-0.5,1-0.8
		c0.3-0.3,0.6-0.6,0.8-0.9c0.2-0.3,0.3-0.6,0.4-0.9c0.1-0.3,0.1-0.5,0-0.7c0-0.2-0.1-0.4-0.2-0.5c-0.1-0.1-0.3-0.2-0.5-0.3
		c-0.2-0.1-0.4-0.1-0.7-0.1c-0.3,0-0.6,0.1-0.9,0.2c-0.3,0.1-0.5,0.3-0.8,0.5c-0.2,0.2-0.5,0.5-0.7,0.7c-0.2,0.3-0.4,0.6-0.6,0.8
		c-0.2,0.3-0.3,0.6-0.4,0.9c-0.1,0.3-0.2,0.6-0.3,0.8c0,0.2-0.1,0.4-0.1,0.6c-0.1,0.1-0.1,0.1-0.2,0.2c-0.3,0.3-0.6,0.6-0.8,0.8
		c-0.2,0.2-0.5,0.4-0.6,0.5c-0.2,0.1-0.4,0.2-0.5,0.3c0.3-0.8,0.6-1.5,0.8-2.1c0.1-0.3,0.2-0.6,0.3-0.9c0.1-0.3,0.2-0.6,0.3-0.8
		c0.1-0.3,0.2-0.5,0.2-0.7c0.1-0.2,0.1-0.4,0.1-0.5c0-0.1,0-0.3,0-0.3c0-0.1,0-0.1-0.1-0.2c0,0-0.1-0.1-0.1-0.1c-0.1,0-0.1,0-0.2,0
		c0,0-0.1,0-0.2,0c-0.1,0-0.1,0-0.2,0c-0.1,0-0.1,0-0.2,0c-0.1,0-0.1,0-0.2,0c0,0-0.1-0.1-0.1-0.1c0,0,0-0.1-0.1-0.1
		c0-0.1-0.1-0.1-0.1-0.1c0,0-0.1-0.1-0.2,0c-0.3,0-0.6,0.1-1,0.3c-0.3,0.2-0.7,0.4-1,0.6c-0.3,0.3-0.6,0.6-0.9,0.9
		c-0.3,0.3-0.6,0.7-0.8,1.1c-0.2,0.4-0.5,0.7-0.6,1.1c-0.2,0.3-0.3,0.7-0.4,1c0,0,0,0,0,0c-0.1,0.1-0.2,0.2-0.4,0.3
		c-0.1,0.1-0.2,0.1-0.3,0.2c-0.1,0-0.2,0.1-0.2,0.1c-0.1,0-0.2-0.1-0.3-0.3c0-0.2,0-0.4,0.1-0.7c0-0.2,0.1-0.4,0.2-0.6
		c0.1-0.2,0.1-0.4,0.2-0.6c0.1-0.2,0.2-0.4,0.3-0.6c0.1-0.2,0.2-0.4,0.2-0.6c0.1-0.2,0.1-0.3,0.2-0.4c0-0.1,0.1-0.2,0.1-0.3
		c0.1-0.4,0.1-0.6,0-0.8c-0.1-0.2-0.2-0.3-0.5-0.3c-0.2,0-0.4,0.1-0.6,0.2c-0.2,0.1-0.4,0.3-0.6,0.6c0,0.1-0.1,0.2-0.2,0.3
		c-0.1,0.1-0.2,0.3-0.3,0.4c-0.1,0.2-0.2,0.3-0.4,0.5c-0.1,0.2-0.2,0.3-0.4,0.5c-0.1,0.2-0.2,0.3-0.3,0.4c-0.1,0.1-0.1,0.2-0.2,0.3
		l-0.1,0c0,0,0-0.1,0.1-0.2c0-0.1,0.1-0.2,0.1-0.3c0.1-0.1,0.1-0.3,0.2-0.4c0.1-0.2,0.1-0.3,0.2-0.5c0.1-0.1,0.1-0.3,0.1-0.4
		c0-0.1,0.1-0.2,0.1-0.3c0.1-0.3,0.1-0.5,0-0.6c-0.1-0.1-0.2-0.2-0.4-0.2c-0.2,0-0.4,0.1-0.6,0.3c-0.2,0.2-0.3,0.3-0.4,0.6
		c-0.1,0.3-0.3,0.6-0.4,1c-0.2,0.4-0.3,0.8-0.5,1.2c-0.1,0.3-0.2,0.7-0.3,1c-0.1,0.1-0.2,0.3-0.4,0.4c-0.1,0.1-0.2,0.2-0.4,0.3
		c-0.1,0.1-0.3,0.2-0.4,0.3c-0.1,0.1-0.2,0.2-0.4,0.2c-0.1,0.1-0.2,0.1-0.3,0.1c-0.1,0-0.2,0-0.2-0.2c0-0.1,0-0.3,0.1-0.5
		c0.1-0.3,0.1-0.5,0.3-0.8c0.1-0.3,0.2-0.6,0.4-0.9c0.1-0.3,0.2-0.6,0.3-0.9c0.1-0.3,0.2-0.5,0.2-0.8c0-0.1,0.1-0.3,0-0.3
		c0-0.1,0-0.1-0.1-0.2c0,0-0.1-0.1-0.1-0.1c-0.1,0-0.1,0-0.2,0c0,0-0.1,0-0.2,0c-0.1,0-0.1,0-0.2,0c-0.1,0-0.1,0-0.2,0
		c-0.1,0-0.1,0-0.2,0c0,0-0.1-0.1-0.1-0.1c0,0,0-0.1-0.1-0.1c0-0.1-0.1-0.1-0.1-0.1c0,0-0.1-0.1-0.2,0c-0.3,0-0.6,0.1-1,0.3
		c-0.3,0.2-0.7,0.4-1,0.6c-0.3,0.3-0.6,0.6-0.9,0.9c-0.3,0.3-0.6,0.7-0.8,1.1c0,0.1-0.1,0.2-0.1,0.2c-0.1,0.1-0.3,0.2-0.4,0.2
		c-0.2,0.1-0.5,0.2-0.7,0.2c-0.1,0-0.1,0-0.2,0c-0.1,0-0.1-0.1-0.1-0.1c0-0.1-0.1-0.2-0.1-0.3c0-0.1,0-0.3,0.1-0.4
		c0-0.1,0.1-0.2,0.1-0.4c0.1-0.2,0.1-0.3,0.2-0.5c0.1-0.2,0.1-0.3,0.2-0.5c0.1-0.1,0.1-0.3,0.1-0.3c0-0.1,0-0.2,0-0.3
		c0-0.1,0-0.1-0.1-0.2c0-0.1-0.1-0.1-0.2-0.1c-0.1,0-0.2,0-0.2,0c-0.2,0-0.5,0.1-0.7,0.3c-0.2,0.2-0.4,0.3-0.6,0.6
		c-0.2,0.2-0.4,0.4-0.5,0.7c-0.2,0.2-0.3,0.5-0.5,0.7l-0.1,0c0-0.2,0.1-0.5,0.2-0.7c0.1-0.2,0.1-0.5,0.2-0.6c0-0.1,0.1-0.3,0.1-0.3
		c0-0.1,0-0.1,0-0.2c0,0-0.1-0.1-0.1-0.1c-0.1,0-0.2,0-0.3,0c-0.1,0-0.2,0-0.3,0c-0.1,0-0.1,0-0.2,0.1c-0.1,0-0.1,0.1-0.2,0.2
		c-0.1,0.1-0.1,0.2-0.2,0.3c-0.1,0.2-0.2,0.4-0.3,0.6c-0.1,0.2-0.2,0.5-0.4,0.8c-0.1,0.3-0.2,0.6-0.3,0.9c0,0,0,0,0,0
		c-0.2,0.1-0.4,0.3-0.7,0.4c-0.2,0.1-0.5,0.2-0.7,0.2c-0.1,0-0.1,0-0.2,0c-0.1,0-0.1-0.1-0.1-0.1c0-0.1-0.1-0.2-0.1-0.3
		c0-0.1,0-0.3,0.1-0.4c0-0.1,0.1-0.2,0.1-0.4c0.1-0.2,0.1-0.3,0.2-0.5c0.1-0.2,0.1-0.3,0.2-0.5c0.1-0.1,0.1-0.3,0.1-0.3
		c0-0.1,0-0.2,0-0.3c0-0.1,0-0.1-0.1-0.2c0-0.1-0.1-0.1-0.2-0.1c-0.1,0-0.2,0-0.2,0c-0.2,0-0.5,0.1-0.7,0.3
		c-0.2,0.2-0.4,0.3-0.6,0.6c-0.2,0.2-0.4,0.4-0.5,0.7c-0.2,0.2-0.3,0.5-0.5,0.7l-0.1,0c0-0.2,0.1-0.5,0.2-0.7C61,12,61,11.8,61,11.6
		c0-0.1,0.1-0.3,0.1-0.3c0-0.1,0-0.1,0-0.2c0,0-0.1-0.1-0.1-0.1c-0.1,0-0.2,0-0.3,0c-0.1,0-0.2,0-0.3,0c-0.1,0-0.1,0-0.2,0.1
		c-0.1,0-0.1,0.1-0.2,0.2c-0.1,0.1-0.1,0.2-0.2,0.3c-0.1,0.2-0.2,0.4-0.3,0.6c-0.1,0.2-0.2,0.5-0.4,0.8c-0.1,0.3-0.3,0.6-0.4,0.9
		c-0.1,0.3-0.2,0.6-0.4,1c0,0.1-0.1,0.2-0.1,0.3c-0.1,0.1-0.3,0.3-0.4,0.4c-0.1,0.1-0.2,0.2-0.4,0.3c-0.1,0.1-0.3,0.2-0.4,0.3
		c-0.1,0.1-0.2,0.2-0.4,0.2c-0.1,0.1-0.2,0.1-0.3,0.1c-0.1,0-0.2,0-0.2-0.2c0-0.1,0-0.3,0.1-0.5c0.1-0.3,0.1-0.5,0.3-0.8
		c0.1-0.3,0.2-0.6,0.4-0.9c0.1-0.3,0.2-0.6,0.3-0.9c0.1-0.3,0.2-0.5,0.2-0.8c0-0.1,0.1-0.3,0-0.3c0-0.1,0-0.1-0.1-0.2
		c0,0-0.1-0.1-0.1-0.1c-0.1,0-0.1,0-0.2,0c0,0-0.1,0-0.2,0c-0.1,0-0.1,0-0.2,0c-0.1,0-0.1,0-0.2,0c-0.1,0-0.1,0-0.2,0
		c0,0-0.1-0.1-0.1-0.1c0,0,0-0.1-0.1-0.2c0-0.1-0.1-0.1-0.1-0.1c0,0-0.1-0.1-0.2,0c-0.3,0-0.6,0.1-1,0.3c-0.3,0.2-0.7,0.4-1,0.6
		c-0.3,0.3-0.6,0.6-0.9,0.9c-0.3,0.3-0.6,0.7-0.8,1.1c-0.2,0.4-0.5,0.7-0.6,1.1c-0.2,0.4-0.3,0.8-0.4,1.1c-0.1,0.3-0.1,0.6-0.1,0.8
		c0,0.2,0.1,0.4,0.2,0.6c0.1,0.2,0.3,0.3,0.4,0.4c0.2,0.1,0.4,0.1,0.6,0.1c0.2,0,0.4-0.1,0.6-0.2c0.2-0.1,0.4-0.2,0.6-0.3
		c0.2-0.1,0.4-0.3,0.6-0.4c0.2-0.2,0.4-0.3,0.5-0.4c0.1,0.4,0.2,0.6,0.3,0.8c0.1,0.2,0.4,0.3,0.7,0.2c0.2,0,0.5-0.1,0.8-0.3
		c0.3-0.1,0.5-0.3,0.8-0.5c0.1-0.1,0.2-0.2,0.3-0.3c0,0.1,0,0.3,0,0.4c0,0.1,0.1,0.2,0.2,0.3c0.1,0.1,0.2,0.1,0.4,0.1
		c0.1,0,0.2,0,0.2-0.1c0.1,0,0.1-0.1,0.2-0.2c0.1-0.1,0.2-0.2,0.2-0.3c0.1-0.1,0.2-0.3,0.3-0.5l2-3.6l0.1,0c0,0.3-0.1,0.6-0.1,0.9
		c0,0.3,0,0.5,0.1,0.8c0.1,0.2,0.2,0.4,0.4,0.5c0.2,0.1,0.4,0.2,0.8,0.1c0.2,0,0.4-0.1,0.6-0.1c0.2-0.1,0.4-0.2,0.6-0.3
		c0.1,0,0.1-0.1,0.2-0.1c0,0.1-0.1,0.2-0.1,0.2c-0.1,0.3-0.2,0.5-0.2,0.7c0,0.2-0.1,0.4-0.1,0.5c0,0.2,0,0.3,0,0.5
		c0,0.1,0.1,0.2,0.2,0.3c0.1,0.1,0.2,0.1,0.4,0.1c0.1,0,0.2,0,0.2-0.1c0.1,0,0.1-0.1,0.2-0.2c0.1-0.1,0.2-0.2,0.2-0.3
		c0.1-0.1,0.2-0.3,0.3-0.5l2-3.6l0.1,0c0,0.3-0.1,0.6-0.1,0.9c0,0.3,0,0.5,0.1,0.8c0.1,0.2,0.2,0.4,0.4,0.5C68,15,68.2,15,68.5,15
		c0.2,0,0.4-0.1,0.6-0.1c0.1,0,0.1-0.1,0.2-0.1c0,0.1,0,0.2-0.1,0.2c-0.1,0.3-0.1,0.6-0.1,0.8c0,0.2,0.1,0.4,0.2,0.6
		c0.1,0.2,0.3,0.3,0.4,0.4c0.2,0.1,0.4,0.1,0.6,0.1c0.2,0,0.4-0.1,0.6-0.2c0.2-0.1,0.4-0.2,0.6-0.3c0.2-0.1,0.4-0.3,0.6-0.4
		c0.2-0.2,0.4-0.3,0.5-0.4c0.1,0.4,0.2,0.6,0.3,0.8c0.1,0.2,0.4,0.3,0.7,0.2c0.2,0,0.5-0.1,0.8-0.3c0.3-0.1,0.5-0.3,0.8-0.5
		c0.1-0.1,0.2-0.2,0.3-0.3c0,0.1,0,0.3,0,0.4c0,0.1,0.1,0.2,0.2,0.3c0.1,0.1,0.2,0.1,0.4,0.1c0.1,0,0.3-0.1,0.4-0.1
		c0.1-0.1,0.3-0.2,0.4-0.4l2.6-3.8l0.1,0c-0.1,0.4-0.3,0.7-0.4,1.1c-0.1,0.3-0.2,0.6-0.3,0.9c-0.2,0.7-0.2,1.3-0.1,1.6
		c0.1,0.4,0.2,0.5,0.5,0.5c0.2,0,0.5-0.1,0.7-0.2c0.2-0.1,0.5-0.2,0.7-0.3c0.2-0.1,0.5-0.3,0.7-0.4c0,0,0,0,0.1,0
		c0,0.1,0.1,0.2,0.1,0.3c0.1,0.2,0.3,0.3,0.4,0.4c0.2,0.1,0.4,0.1,0.6,0.1c0.2,0,0.5-0.1,0.8-0.3c0.3-0.2,0.6-0.4,0.9-0.6l-0.3,0.7
		c-0.4,0.3-0.8,0.6-1.2,1c-0.4,0.3-0.8,0.7-1.1,1c-0.4,0.3-0.7,0.7-1,1c-0.3,0.3-0.6,0.7-0.9,1c-0.2,0.3-0.5,0.6-0.6,0.9
		c-0.2,0.3-0.3,0.5-0.3,0.7c-0.1,0.3-0.1,0.6,0,0.7c0.1,0.2,0.1,0.3,0.3,0.4c0.1,0.1,0.3,0.1,0.4,0.2c0.1,0,0.3,0,0.4,0L74.8,45
		l12.8-1.1l0.9-3.9l-8.3,0.7l1.5-6.4l7.5-0.7l0.9-3.9l-7.5,0.7l1.3-5.6l8-0.7l0.9-3.9l-10.2,0.9c0.2-0.2,0.4-0.4,0.5-0.6
		c0.3-0.4,0.6-0.8,0.8-1.2c0.3-0.4,0.5-0.9,0.7-1.4c0.2-0.5,0.4-1,0.7-1.5c0.5-0.3,1-0.7,1.4-1c0.2-0.1,0.4-0.3,0.6-0.5
		c0.2-0.2,0.4-0.3,0.6-0.5c0.1-0.1,0.2-0.2,0.3-0.3c0,0.1,0,0.1,0.1,0.2c0.1,0.3,0.4,0.4,0.6,0.6c0.3,0.1,0.6,0.2,1,0.1
		c0.3,0,0.5-0.1,0.8-0.2c0.3-0.1,0.5-0.2,0.8-0.3c0.3-0.1,0.5-0.3,0.8-0.4c0.2-0.1,0.4-0.3,0.7-0.4c0,0.1,0,0.1,0,0.2
		c0,0.2,0,0.3,0,0.5c0,0.1,0.1,0.2,0.2,0.3c0.1,0.1,0.2,0.1,0.4,0.1c0.1,0,0.3-0.1,0.4-0.1c0.1-0.1,0.3-0.2,0.4-0.4
		c0.5-0.7,0.8-1.3,1.1-1.7c0.3-0.5,0.5-0.8,0.7-1.1c0.2-0.3,0.3-0.5,0.4-0.7c0.1-0.1,0.2-0.3,0.3-0.3l0.1,0
		c-0.2,0.4-0.3,0.9-0.5,1.2c-0.1,0.2-0.1,0.3-0.2,0.5c-0.1,0.2-0.1,0.3-0.2,0.5c-0.1,0.1-0.1,0.3-0.1,0.4c0,0.1-0.1,0.2-0.1,0.3
		c0,0.1-0.1,0.3-0.1,0.5c0,0.2,0,0.3,0,0.4c0,0.1,0.1,0.2,0.1,0.3c0.1,0.1,0.2,0.1,0.3,0.1c0.2,0,0.4-0.1,0.5-0.1
		c0.2-0.1,0.3-0.2,0.5-0.4l2.2-3.8l0.1,0c-0.1,0.3-0.2,0.7-0.3,1c-0.1,0.3-0.2,0.7-0.3,1c-0.1,0.3-0.1,0.6-0.2,0.9
		c0,0.3,0,0.5,0,0.7c0,0.2,0.1,0.3,0.2,0.4c0.1,0.1,0.2,0.1,0.4,0.1c0.3,0,0.6-0.1,0.9-0.2c0.3-0.1,0.5-0.3,0.8-0.4
		c0.3-0.2,0.5-0.3,0.7-0.5c0.1-0.1,0.2-0.2,0.3-0.2c0,0.1,0.1,0.2,0.1,0.3c0.1,0.3,0.4,0.4,0.6,0.6c0.3,0.1,0.6,0.2,1,0.1
		c0.3,0,0.5-0.1,0.8-0.2c0.3-0.1,0.5-0.2,0.8-0.3c0.3-0.1,0.5-0.3,0.8-0.4c0.3-0.2,0.5-0.3,0.7-0.5c0.1,0,0.1-0.1,0.2-0.1
		c0,0.1,0,0.2-0.1,0.3c0,0.2,0,0.3,0,0.5c0,0.1,0.1,0.2,0.2,0.3c0.1,0.1,0.2,0.1,0.4,0.1c0.1,0,0.3-0.1,0.4-0.1
		c0.1-0.1,0.3-0.2,0.4-0.4l2.6-3.8l0.1,0c-0.1,0.4-0.3,0.7-0.4,1.1c-0.1,0.3-0.2,0.6-0.3,0.9c-0.2,0.7-0.2,1.3-0.1,1.6
		c0.1,0.4,0.2,0.5,0.5,0.5c0.2,0,0.5-0.1,0.7-0.2C112.2,12.9,112.4,12.8,112.6,12.7z M117.5,4c0.2-0.4,0.4-0.8,0.6-1.1
		c0.2-0.3,0.4-0.6,0.5-0.9c0.2-0.2,0.3-0.3,0.4-0.4c0.1,0,0.1,0,0.2,0c0,0,0.1,0.1,0.1,0.1c0,0.1,0,0.1,0,0.2c0,0.1,0,0.1,0,0.2
		c0,0.2-0.1,0.3-0.3,0.6c-0.1,0.2-0.3,0.5-0.5,0.8c-0.2,0.3-0.4,0.6-0.6,0.9c-0.2,0.3-0.4,0.6-0.6,0.8c-0.1,0-0.1,0-0.2,0
		c-0.1,0-0.1,0-0.2,0C117.1,4.8,117.3,4.4,117.5,4z M104.1,10.2c0-0.1,0.1-0.3,0.2-0.5c0.1-0.2,0.1-0.3,0.2-0.5
		c0.1-0.2,0.2-0.3,0.3-0.4c0.1-0.1,0.3-0.2,0.4-0.3c0.2-0.1,0.3-0.1,0.5-0.2c0.1,0,0.2,0.1,0.2,0.2c0,0.1,0,0.3,0,0.5
		c0,0.2-0.1,0.3-0.3,0.5c-0.1,0.2-0.3,0.3-0.5,0.5s-0.4,0.3-0.6,0.4c-0.2,0.1-0.4,0.2-0.6,0.2C104.1,10.5,104.1,10.3,104.1,10.2z
		 M90.1,11.4c0-0.1,0.1-0.3,0.2-0.5c0.1-0.2,0.1-0.3,0.2-0.5c0.1-0.2,0.2-0.3,0.3-0.4c0.1-0.1,0.3-0.2,0.4-0.3
		c0.2-0.1,0.3-0.1,0.5-0.2c0.1,0,0.2,0.1,0.2,0.2c0,0.1,0,0.3,0,0.5c0,0.2-0.1,0.3-0.3,0.5c-0.1,0.2-0.3,0.3-0.5,0.5
		c-0.2,0.2-0.4,0.3-0.6,0.4c-0.2,0.1-0.4,0.2-0.6,0.2C90,11.7,90.1,11.6,90.1,11.4z M55.2,14.9c-0.1,0.2-0.1,0.3-0.3,0.6
		c-0.1,0.2-0.2,0.5-0.4,0.7c-0.1,0.2-0.3,0.4-0.5,0.6c-0.2,0.2-0.3,0.3-0.5,0.3c-0.1,0-0.2,0-0.2-0.1c-0.1,0-0.1-0.1-0.1-0.2
		c0-0.1,0-0.2,0-0.3c0-0.1,0-0.2,0.1-0.3c0-0.2,0.1-0.4,0.2-0.7c0.1-0.2,0.2-0.5,0.4-0.7c0.1-0.2,0.3-0.5,0.5-0.7
		c0.2-0.2,0.4-0.4,0.6-0.6c0.2-0.2,0.4-0.3,0.6-0.4c0.2-0.1,0.4-0.2,0.6-0.2L55.2,14.9z M73,13.3c-0.1,0.2-0.1,0.3-0.3,0.6
		c-0.1,0.2-0.2,0.5-0.4,0.7c-0.1,0.2-0.3,0.4-0.5,0.6c-0.2,0.2-0.3,0.3-0.5,0.3c-0.1,0-0.2,0-0.2-0.1c-0.1,0-0.1-0.1-0.1-0.2
		c0-0.1,0-0.2,0-0.3c0-0.1,0-0.2,0.1-0.3c0-0.2,0.1-0.4,0.2-0.7c0.1-0.2,0.2-0.5,0.4-0.7c0.1-0.2,0.3-0.5,0.5-0.7
		c0.2-0.2,0.4-0.4,0.6-0.6c0.2-0.2,0.4-0.3,0.6-0.4c0.2-0.1,0.4-0.2,0.6-0.2L73,13.3z M83.2,18.1c-0.1,0.2-0.3,0.5-0.4,0.8
		c-0.1,0.3-0.3,0.5-0.5,0.8c-0.2,0.3-0.4,0.5-0.5,0.7c-0.2,0.2-0.4,0.4-0.6,0.5c-0.2,0.1-0.4,0.2-0.6,0.2c-0.2,0-0.2-0.1-0.2-0.2
		c0-0.1,0.1-0.2,0.2-0.4c0.1-0.2,0.2-0.4,0.4-0.6c0.2-0.2,0.3-0.4,0.5-0.6c0.2-0.2,0.4-0.4,0.6-0.6c0.2-0.2,0.4-0.4,0.7-0.6
		c0.2-0.2,0.4-0.3,0.6-0.5C83.5,17.6,83.4,17.8,83.2,18.1z M85.4,12.2c-0.1,0.2-0.1,0.3-0.3,0.6c-0.1,0.2-0.2,0.5-0.4,0.7
		c-0.1,0.2-0.3,0.4-0.5,0.6c-0.2,0.2-0.3,0.3-0.5,0.3c-0.1,0-0.2,0-0.2-0.1c-0.1,0-0.1-0.1-0.1-0.2c0-0.1,0-0.2,0-0.3
		c0-0.1,0-0.2,0.1-0.3c0-0.2,0.1-0.4,0.2-0.7c0.1-0.2,0.2-0.5,0.4-0.7c0.1-0.2,0.3-0.5,0.5-0.7c0.2-0.2,0.4-0.4,0.6-0.6
		c0.2-0.2,0.4-0.3,0.6-0.4c0.2-0.1,0.4-0.2,0.6-0.2L85.4,12.2z"/>
	<polygon fill="#010101" points="15.4,27 13.2,36.1 8,36.6 10.1,27.5 5.6,27.9 0,51.6 4.5,51.2 7,40.7 12.3,40.2 9.8,50.8 
		14.3,50.4 19.9,26.6 	"/>
	<path fill="#010101" d="M35.8,28.2c-0.3-1-0.8-1.8-1.7-2.3c-0.9-0.5-2.1-0.7-3.8-0.6c-1.7,0.1-3.1,0.6-4.3,1.3
		c-1.1,0.7-2.1,1.6-2.9,2.7c-0.8,1.1-1.4,2.5-2,4c-0.5,1.5-1,3.2-1.4,5c-0.4,1.8-0.7,3.5-0.9,5c-0.2,1.5-0.2,2.8,0.1,3.8
		c0.3,1,0.8,1.8,1.7,2.3c0.9,0.5,2.1,0.7,3.8,0.5c1.7-0.1,3.1-0.6,4.2-1.2c1.1-0.7,2.1-1.6,2.9-2.7c0.8-1.1,1.4-2.5,2-4
		c0.5-1.5,1-3.2,1.4-5c0.4-1.8,0.7-3.4,0.9-4.9C36.1,30.5,36.1,29.2,35.8,28.2z M31.3,33.3c-0.2,1.1-0.5,2.5-0.9,4
		c-0.4,1.6-0.7,3-1.1,4.1c-0.3,1.1-0.7,2-1.1,2.8c-0.4,0.7-0.8,1.3-1.3,1.6c-0.5,0.4-1.1,0.6-1.7,0.6c-0.7,0.1-1.2-0.1-1.5-0.3
		c-0.3-0.3-0.5-0.8-0.6-1.4c-0.1-0.7,0-1.6,0.2-2.7c0.2-1.1,0.5-2.5,0.9-4.1c0.4-1.6,0.7-3,1.1-4.1c0.3-1.1,0.7-2,1.1-2.8
		c0.4-0.7,0.8-1.3,1.3-1.6c0.5-0.4,1.1-0.6,1.7-0.6c0.7-0.1,1.2,0.1,1.5,0.3c0.3,0.3,0.5,0.8,0.6,1.5C31.6,31.3,31.5,32.2,31.3,33.3
		z"/>
	<path fill="#010101" d="M51.5,24.8c-0.5-0.5-1.1-0.8-1.9-0.9c-0.8-0.2-1.7-0.2-2.7-0.1c-2.1,0.2-4,0.9-5.5,2.2
		c-1.5,1.3-2.5,3.1-3.1,5.4c-0.2,1-0.3,1.8-0.3,2.5c0.1,0.7,0.3,1.3,0.6,1.9c0.4,0.5,0.8,1,1.5,1.3c0.6,0.4,1.4,0.7,2.3,0.9
		c0.7,0.2,1.3,0.4,1.7,0.6c0.5,0.2,0.8,0.5,1,0.7c0.2,0.3,0.4,0.6,0.4,1c0,0.4,0,0.8-0.1,1.4c-0.2,1-0.7,1.8-1.4,2.3
		c-0.7,0.5-1.3,0.8-2,0.9c-0.6,0.1-1,0-1.4-0.1c-0.3-0.1-0.6-0.4-0.7-0.7c-0.2-0.3-0.2-0.7-0.2-1.1c0-0.4,0.1-0.9,0.2-1.5l0.2-0.7
		l-4.5,0.4l-0.2,1c-0.5,2.2-0.4,3.8,0.4,4.9c0.8,1.1,2.5,1.5,5,1.3c2.4-0.2,4.5-1,6.1-2.2c1.6-1.3,2.8-3.1,3.3-5.7
		c0.2-0.7,0.3-1.4,0.3-2c0-0.6-0.1-1.1-0.3-1.6c-0.2-0.5-0.5-0.9-1-1.3c-0.4-0.4-1-0.7-1.8-1.1l-3.1-1.3c-0.9-0.3-1.4-0.7-1.6-1.2
		c-0.2-0.5-0.2-1.1,0-1.8c0.1-0.4,0.2-0.7,0.4-1c0.2-0.3,0.4-0.6,0.6-0.9c0.3-0.3,0.6-0.5,0.9-0.7c0.4-0.2,0.8-0.3,1.3-0.3
		c0.9-0.1,1.4,0.2,1.7,0.7c0.2,0.6,0.2,1.4-0.1,2.6l4.3-0.4l0.2-0.7c0.3-1.1,0.3-2.1,0.2-2.9C52.3,25.9,52,25.3,51.5,24.8z"/>
	<path fill="#010101" d="M76.5,28.6c0.2-0.9,0.3-1.7,0.3-2.6c0-0.8-0.2-1.6-0.5-2.2c-0.3-0.6-0.8-1.1-1.5-1.4
		c-0.7-0.3-1.6-0.5-2.7-0.4l-7.9,0.7l-5.6,23.7l4.5-0.4l2.2-9.5l2.4-0.2c1.1-0.1,2.1-0.3,3-0.7c0.9-0.4,1.8-0.9,2.5-1.5
		c0.8-0.6,1.4-1.4,2-2.4C75.8,30.9,76.2,29.8,76.5,28.6z M72,29.1c-0.3,1.2-0.8,2.1-1.5,2.8c-0.7,0.6-1.5,1-2.4,1.1l-2,0.2l1.7-7.2
		l1.9-0.2c1.1-0.1,1.9,0.1,2.2,0.7C72.3,27,72.3,27.9,72,29.1z"/>
	<polygon fill="#010101" points="102.3,35.3 102.3,35.3 100.7,19.5 95.5,19.9 89.9,43.7 94,43.3 97.9,26.7 98,26.7 99.6,42.8 
		104.7,42.4 110.3,18.6 106.2,19 	"/>
	<polygon fill="#010101" points="126.5,17.2 112.3,18.5 111.3,22.4 116.2,22 111.5,41.8 116,41.4 120.7,21.6 125.6,21.1 	"/>
	<polygon fill="#010101" points="128.7,17 123.1,40.7 127.6,40.3 133.2,16.6 	"/>
	<path fill="#010101" d="M146.8,38.6l-0.3-23.2l-5.6,0.5l-11.6,24.3l4.7-0.4l2.2-5.1l5.9-0.5l-0.2,4.9L146.8,38.6z M138,30.7
		l4.7-10.9l0.1,0l-0.4,10.5L138,30.7z"/>
</g>
</svg>
