<?xml version="1.0" encoding="utf-8"?>
<!-- Generator: Adobe Illustrator 17.1.0, SVG Export Plug-In . SVG Version: 6.00 Build 0)  -->
<!DOCTYPE svg PUBLIC "-//W3C//DTD SVG 1.1//EN" "http://www.w3.org/Graphics/SVG/1.1/DTD/svg11.dtd">
<svg version="1.1" id="Layer_1" xmlns="http://www.w3.org/2000/svg" xmlns:xlink="http://www.w3.org/1999/xlink" x="0px" y="0px"
	 viewBox="0 0 595.3 841.9" enable-background="new 0 0 595.3 841.9" xml:space="preserve">
<g>
	<path d="M14,69.2c-0.1,0.7-0.1,1.4-0.2,2.2c-0.1,0.7-0.1,1.4-0.2,2c-0.1,0.7-0.1,1.4-0.2,2c0.8-0.3,1.5-0.5,2.2-0.8
		c0.7-0.3,1.3-0.6,1.8-0.9c0.5-0.3,1-0.7,1.5-1.2s0.8-0.9,1.1-1.5c0.3-0.6,0.5-1.2,0.6-2s0.2-1.6,0.2-2.6c0-0.4,0-0.7,0-1
		c0-0.2,0-0.4,0.1-0.6c0.1-0.2,0.2-0.3,0.4-0.4c0.2-0.1,0.5-0.3,0.9-0.5c0.3-0.1,0.6-0.1,0.7-0.1c0.2,0,0.3,0.1,0.4,0.2
		c0.1,0.1,0.2,0.2,0.2,0.3c0,0.1,0.1,0.2,0.1,0.3c0,0.2,0,0.4,0,0.7c0,0.3,0,0.6,0,0.8c0,0.9-0.1,1.7-0.2,2.5
		c-0.1,0.8-0.3,1.5-0.6,2.2c-0.3,0.7-0.6,1.3-1,1.9c-0.4,0.6-1,1.1-1.6,1.7c-0.6,0.5-1.4,1-2.3,1.4c-0.9,0.4-1.9,0.9-3,1.2
		c0.9,1.9,1.4,2.9,1.4,2.9c0.5,0.7,1,1.7,1.6,2.8c0.3,0.5,0.6,0.8,1.2,1.1c0.4,0.2,0.8,0.2,1.3,0.1c0.3-0.1,0.6-0.3,1-0.5
		c0.4-0.2,0.7-0.4,1.1-0.7c0.4-0.3,0.7-0.6,1.1-0.9c0.4-0.3,0.7-0.7,1-1.1l1.4,1.9c0,0-0.1,0.1-0.2,0.2c-0.1,0.2-0.4,0.3-0.6,0.6
		c-0.3,0.2-0.6,0.5-0.9,0.8c-0.4,0.3-0.8,0.6-1.2,0.9c-0.4,0.3-0.9,0.6-1.4,0.9s-1,0.5-1.5,0.7c-0.6,0.2-1.1,0.3-1.5,0.2
		c-0.4,0-0.8-0.1-1.2-0.3c-0.3-0.2-0.7-0.6-1.1-1.2c-0.4-0.6-0.7-1.1-1-1.5c-0.2-0.4-0.5-0.8-0.7-1.3c-0.2-0.5-0.5-0.9-0.7-1.3
		c-0.2-0.4-0.5-0.8-0.7-1.2c-0.3-0.4-0.6-0.7-0.9-1c-0.4,1.8-0.9,3.3-1.5,4.7c-0.6,1.3-1.2,2.5-1.9,3.5c-0.7,1-1.4,1.8-2.2,2.4
		c-0.8,0.6-1.6,1.1-2.5,1.4c-0.3,0.1-0.7,0.2-1.1,0.3c-0.4,0.1-0.8,0.2-1.2,0.2c-0.4,0-0.7,0-1,0c-0.3-0.1-0.4-0.2-0.4-0.4
		c0-0.2,0.1-0.4,0.2-0.6c0.1-0.2,0.2-0.4,0.3-0.6c0-0.1,0.1-0.2,0.2-0.3c0.1-0.1,0.2-0.2,0.2-0.3C1.9,89,2,88.9,2.1,88.8
		c0.1-0.1,0.2-0.2,0.3-0.2c0,0,0.1,0,0.1,0c0.3,0,0.6,0,0.8,0c0.3,0,0.5-0.1,0.8-0.2c0.7-0.2,1.3-0.7,1.9-1.3
		c0.6-0.6,1.1-1.4,1.5-2.3c0.5-0.9,0.9-1.9,1.2-3.1c0.3-1.1,0.7-2.3,0.9-3.6c0.3-1.3,0.5-2.6,0.6-3.9c0.2-1.3,0.3-2.6,0.5-3.9l0.1-1
		c-0.7,0.2-1.3,0.5-1.9,0.9c-0.6,0.4-1.1,0.8-1.5,1.2c-0.4,0.4-0.8,0.9-1.1,1.4c-0.3,0.5-0.6,1-0.8,1.5c-0.2,0.5-0.4,1-0.5,1.4
		c-0.1,0.5-0.1,0.9-0.1,1.3c0,0,0,0.1,0,0.2c0,0.1-0.1,0.2-0.2,0.4c-0.1,0.1-0.2,0.3-0.4,0.4c-0.2,0.1-0.5,0.3-0.8,0.4
		c-0.4,0.1-0.8,0.2-1,0.2c-0.3,0-0.4,0-0.6-0.1c-0.1-0.1-0.2-0.1-0.3-0.3c0-0.1-0.1-0.2-0.1-0.3v-0.1c0,0,0,0,0,0
		c0.1-1.1,0.4-2.1,0.8-3.1c0.4-0.9,1-1.8,1.6-2.5c0.6-0.7,1.3-1.4,2.1-2c0.7-0.6,1.5-1.1,2.3-1.5c0.8-0.4,1.5-0.8,2.2-1.1
		c0.7-0.3,1.3-0.5,1.8-0.7c0.3-0.1,0.6-0.2,0.7-0.1c0.2,0,0.3,0,0.5,0.1c0.1,0.1,0.2,0.2,0.2,0.3c0,0.1,0.1,0.2,0.1,0.4
		c0.1,0.3,0.1,0.6,0.1,0.8C14,68.7,14,69,14,69.2z"/>
	<path d="M31,72.1c0.2,0.4,0.4,0.8,0.5,1.3c0.1,0.5,0.2,1,0.2,1.7c0,0.5-0.1,1-0.2,1.5c-0.1,0.5-0.2,1-0.4,1.5
		c-0.2,0.5-0.4,1-0.7,1.5c-0.3,0.5-0.6,0.9-1,1.3c-0.4,0.4-0.7,0.8-1.2,1.1c-0.4,0.3-0.9,0.5-1.4,0.7c-0.7,0.2-1.3,0.3-1.8,0.1
		c-0.5-0.1-0.9-0.4-1.2-0.8c-0.3-0.4-0.5-0.9-0.7-1.4c-0.1-0.6-0.2-1.2-0.2-1.8c0-1,0.1-2,0.4-2.8c0.3-0.8,0.6-1.6,1.1-2.4
		c0.5-0.7,1.1-1.4,1.8-1.9c0.7-0.6,1.5-1,2.4-1.3c0.7-0.3,1.4-0.4,2.1-0.4c0.7,0,1.3,0.1,1.8,0.3c0.6,0.2,1.1,0.5,1.6,0.9
		c0.5,0.4,0.9,0.8,1.4,1.2l-0.2,1.8c-0.2-0.2-0.5-0.4-0.9-0.6c-0.4-0.2-0.7-0.5-1.1-0.7c-0.4-0.3-0.8-0.5-1.2-0.6
		c-0.4-0.1-0.7-0.3-1-0.4L31,72.1z M27.4,80.2c0.3-0.1,0.5-0.3,0.8-0.7c0.3-0.4,0.5-0.8,0.7-1.3c0.2-0.5,0.3-1,0.5-1.7
		c0.1-0.6,0.2-1.2,0.2-1.6c0-0.4,0-0.7-0.1-1c-0.1-0.3-0.1-0.5-0.2-0.7c-0.1-0.2-0.3-0.3-0.4-0.4c-0.2-0.1-0.4-0.1-0.6,0
		c-0.3,0.1-0.6,0.4-0.9,0.7c-0.3,0.4-0.5,0.8-0.8,1.3c-0.2,0.5-0.4,1-0.5,1.6c-0.1,0.6-0.2,1.2-0.2,1.8c0,0.3,0,0.6,0.1,0.9
		c0.1,0.3,0.2,0.5,0.3,0.7c0.1,0.2,0.3,0.3,0.5,0.3C26.8,80.3,27.1,80.3,27.4,80.2z"/>
	<path d="M38.8,76.5c0-0.1,0-0.3,0-0.5c0-0.2,0-0.4,0.1-0.7c0-0.3,0.1-0.5,0.1-0.8c0-0.3,0.1-0.6,0.1-0.9c0.1-0.7,0.2-1.4,0.3-2.2
		l-0.2,0.1c-0.1,0.2-0.2,0.4-0.3,0.7c-0.1,0.3-0.3,0.7-0.5,1.2c-0.2,0.5-0.5,1.2-0.8,2.1c-0.3,0.9-0.8,1.9-1.3,3.2
		c-0.2,0.4-0.3,0.6-0.5,0.8c-0.2,0.2-0.4,0.3-0.7,0.4C34.7,80,34.5,80,34.3,80c-0.2-0.1-0.3-0.2-0.5-0.4c-0.1-0.2-0.2-0.4-0.2-0.7
		c0-0.3-0.1-0.6-0.1-0.9c0-0.3,0-0.7,0.1-1.2c0-0.5,0.1-1,0.2-1.5c0.1-0.5,0.2-1.1,0.3-1.8s0.2-1.3,0.3-1.8c0.1-0.5,0.2-1,0.3-1.4
		c0.1-0.4,0.2-0.8,0.3-1.1c0.1-0.3,0.2-0.5,0.2-0.7c0.1-0.2,0.2-0.3,0.2-0.4c0.1-0.1,0.2-0.2,0.3-0.3c0.1-0.1,0.3-0.1,0.5-0.2
		c0.3-0.1,0.5-0.2,0.7-0.2c0.2,0,0.3,0,0.4,0c0.1,0,0.1,0.1,0.1,0.3c0,0.1,0,0.3,0,0.6c0,0.1,0,0.3,0,0.5c0,0.2,0,0.4-0.1,0.6
		c0,0.2,0,0.4-0.1,0.6c-0.1,0.4-0.1,0.6-0.1,0.7c-0.1,0.6-0.2,1.2-0.3,1.9l0.1,0.1c0,0,0.1-0.3,0.3-0.7c0.2-0.5,0.4-0.9,0.6-1.4
		c0.2-0.5,0.5-1,0.7-1.5c0.3-0.5,0.5-1,0.7-1.4c0.2-0.4,0.5-0.8,0.7-1.1c0.3-0.3,0.6-0.5,0.9-0.6c0.3-0.1,0.6-0.1,0.8,0
		c0.2,0.1,0.4,0.4,0.4,0.7c0,0.3,0,0.6-0.1,0.9c0,0.4-0.1,0.7-0.1,0.9c-0.1,0.2-0.1,0.5-0.2,0.8c-0.1,0.3-0.2,0.7-0.3,1.2
		c0,0.1,0,0.2-0.1,0.4c0,0.1,0,0.1,0,0.1l0.1,0.1c0,0,0.1-0.3,0.3-0.7c0.2-0.5,0.4-0.9,0.7-1.4c0.2-0.5,0.5-1,0.8-1.5
		c0.3-0.5,0.5-1,0.8-1.4c0.2-0.4,0.5-0.7,0.7-1c0.2-0.3,0.5-0.5,0.8-0.6c0.4-0.1,0.7-0.1,0.9,0c0.3,0.1,0.4,0.3,0.4,0.7
		c0,0.6,0,1.1-0.1,1.6c-0.1,0.5-0.1,1.1-0.2,1.7c-0.1,0.6-0.2,1.2-0.2,1.7c-0.1,0.5-0.1,1-0.1,1.6c0,0.4,0.1,0.8,0.2,1
		c0.1,0.2,0.2,0.3,0.4,0.3c0.2-0.1,0.3-0.2,0.5-0.3c0.2-0.1,0.4-0.3,0.6-0.5s0.4-0.4,0.6-0.6c0.2-0.2,0.4-0.4,0.5-0.6
		c0.4-0.5,0.8-1,1.1-1.6l0.2,2.8c-0.3,0.4-0.7,0.8-1,1.2c-0.3,0.4-0.7,0.8-1.1,1.2c-0.4,0.4-0.8,0.7-1.3,1c-0.5,0.3-1,0.6-1.5,0.7
		c-0.3,0.1-0.5,0.1-0.7,0c-0.2-0.1-0.3-0.3-0.5-0.6c-0.1-0.3-0.2-0.6-0.3-1.1c-0.1-0.4-0.1-0.9-0.1-1.4c0-0.5,0-1,0.1-1.6
		c0-0.6,0.1-1.2,0.1-1.8l-0.2,0.1l-2.4,6.9c-0.2,0.4-0.4,0.7-0.7,0.9c-0.3,0.2-0.5,0.4-0.9,0.5c-0.3,0.1-0.5,0.1-0.6,0
		c-0.1-0.1-0.3-0.2-0.3-0.4c-0.1-0.2-0.1-0.4-0.2-0.6C38.9,76.9,38.8,76.7,38.8,76.5z"/>
	<path d="M54.9,73.6c0,0,0-0.3,0-0.7c0-0.5,0.1-1.1,0.1-1.8c0.1-0.8,0.1-1.6,0.2-2.6c0.1-1,0.2-2.1,0.4-3.2c0.2-1.1,0.3-2.3,0.6-3.5
		c0.2-1.2,0.5-2.4,0.8-3.6c0.3-1.2,0.6-2.3,1-3.4c0.4-1.1,0.8-2,1.3-2.9c0.5-0.9,1-1.6,1.6-2.2c0.6-0.6,1.2-1,1.9-1.3
		c0.3-0.1,0.5-0.1,0.8-0.1c0.3,0,0.6,0.1,0.8,0.2c0.2,0.1,0.4,0.3,0.6,0.6c0.2,0.3,0.2,0.7,0.2,1.2c0,0.5-0.1,1-0.2,1.7
		c-0.1,0.7-0.4,1.4-0.6,2.2c-0.3,0.8-0.6,1.6-1,2.5c-0.4,0.9-0.8,1.8-1.2,2.6c-0.4,0.9-0.9,1.8-1.4,2.7c-0.5,0.9-1,1.7-1.5,2.5
		l0,0.2c0.2-0.1,0.3-0.2,0.4-0.3c0.1,0,0.2-0.1,0.3-0.1c0.1,0,0.2-0.1,0.3-0.1s0.1,0,0.2,0c0.1,0,0.1,0,0.2,0c0.1,0,0.1,0,0.2,0
		c0.8-0.3,1.5-0.6,2.1-1c0.6-0.4,1.1-0.8,1.5-1.1c0.5-0.4,0.9-0.9,1.2-1.3l-0.3,3c-0.5,0.5-1.1,0.9-1.6,1.2
		c-0.6,0.4-1.1,0.6-1.6,0.9c-0.6,0.3-1.1,0.5-1.7,0.7c0.3,0.4,0.6,0.9,0.8,1.4c0.2,0.4,0.4,0.9,0.6,1.4c0.2,0.5,0.3,1.1,0.3,1.7
		c0,0.1,0,0.2,0,0.5c0,0.2-0.1,0.5-0.1,0.9c0,0.3-0.1,0.7-0.2,1.2c-0.1,0.4-0.2,0.9-0.4,1.3s-0.3,0.9-0.5,1.4
		c-0.2,0.5-0.4,0.9-0.7,1.3c-0.3,0.4-0.6,0.7-0.9,1c-0.4,0.3-0.8,0.5-1.2,0.7c-0.4,0.1-0.8,0.2-1.1,0.1c-0.3-0.1-0.6-0.3-0.8-0.5
		c-0.2-0.3-0.4-0.6-0.6-1c-0.2-0.4-0.3-0.8-0.4-1.3c-0.1-0.5-0.1-1-0.2-1.5C54.9,74.6,54.9,74.1,54.9,73.6z M58,66.3
		c0,0-0.1,0.1-0.1,0.3c0,0.2-0.1,0.4-0.1,0.7c0,0.3-0.1,0.7-0.1,1.2c0,0.5-0.1,0.9-0.1,1.3c0,0.3,0,0.6-0.1,0.9s0,0.5,0,0.7
		c0,1.2,0,2.1,0.1,2.8c0,0.7,0.1,1.2,0.2,1.5c0.1,0.3,0.1,0.5,0.2,0.6c0.1,0.1,0.2,0.1,0.3,0.1c0.3-0.1,0.5-0.3,0.6-0.6
		c0.2-0.3,0.3-0.7,0.4-1.1c0.1-0.4,0.1-0.8,0.2-1.3c0-0.5,0-0.9,0-1.3c0-0.3,0-0.6,0-1c0-0.4,0-0.8-0.1-1.3c0-0.5-0.1-1-0.2-1.5
		c-0.1-0.6-0.2-1-0.4-1.2c-0.2-0.2-0.3-0.4-0.4-0.6C58.2,66.4,58.1,66.3,58,66.3z M61,52.8c-0.5,1.2-0.8,2.3-1.1,3.4
		c-0.3,1-0.5,1.8-0.6,2.5c-0.1,0.7-0.2,1.3-0.3,1.9c-0.1,0.5-0.1,1-0.2,1.5c0.5-1.1,1-2.1,1.6-3.2c0.5-1,1-2,1.4-2.9
		c0.4-0.9,0.7-1.7,1-2.5c0.3-0.8,0.4-1.4,0.4-1.7c0-0.4-0.1-0.7-0.2-0.9c-0.1-0.2-0.3-0.2-0.6-0.1c-0.4,0.1-0.7,0.3-0.9,0.6
		C61.4,51.6,61.2,52.1,61,52.8z"/>
	<path d="M64.4,67.4c0-0.3,0-0.8,0.1-1.2c0-0.5,0.1-1,0.2-1.5c0.1-0.5,0.1-1.1,0.2-1.7c0.1-0.6,0.2-1.2,0.3-1.8
		c0.1-0.7,0.3-1.2,0.4-1.6c0.1-0.4,0.2-0.8,0.3-1.1c0.1-0.2,0.1-0.4,0.2-0.5c0.1-0.1,0.1-0.2,0.2-0.3c0.1-0.1,0.2-0.2,0.3-0.2
		c0.1-0.1,0.3-0.1,0.5-0.2c0.2-0.1,0.4-0.1,0.5-0.1c0.1,0,0.2,0,0.3,0.1c0.1,0.1,0.1,0.2,0.1,0.3c0,0.1,0,0.3,0,0.6
		c0,0.3,0,0.7-0.1,1.3c0,0.6-0.1,1,0,1.4l0.1,0c0.2-0.4,0.4-0.9,0.6-1.5c0.2-0.6,0.5-1.1,0.7-1.5c0.3-0.4,0.6-0.8,0.9-1.2
		c0.3-0.3,0.7-0.6,1.1-0.7c0.1-0.1,0.3-0.1,0.4-0.1c0.1,0,0.3,0,0.4,0.1c0.1,0.1,0.2,0.1,0.3,0.3c0.1,0.1,0.1,0.3,0.1,0.4
		c0,0.1,0,0.3-0.1,0.6c0,0.3-0.1,0.6-0.2,1c-0.1,0.4-0.1,0.8-0.2,1c0,0.3-0.1,0.5-0.1,0.6c0,0.3,0,0.5,0.1,0.7
		c0.1,0.2,0.1,0.3,0.2,0.4c0.1,0.1,0.2,0.1,0.3,0.1c0.1,0,0.2,0,0.4-0.1c0.4-0.1,0.7-0.3,1.1-0.6c0.4-0.3,0.7-0.6,1-0.9
		c0.4-0.4,0.7-0.7,1.1-1.2L76,61.1c-0.2,0.2-0.4,0.4-0.7,0.7c-0.3,0.3-0.5,0.5-0.8,0.8c-0.3,0.2-0.6,0.5-0.9,0.7
		c-0.3,0.2-0.6,0.4-1,0.5c-0.6,0.2-1.1,0.2-1.4,0.1c-0.4-0.1-0.6-0.3-0.9-0.7c-0.2-0.3-0.4-0.7-0.5-1.2c-0.1-0.5-0.2-0.9-0.2-1.4
		l-0.2,0.1l-2.1,6.7c-0.1,0.3-0.2,0.6-0.3,0.9c-0.1,0.2-0.2,0.4-0.3,0.6c-0.1,0.2-0.2,0.3-0.3,0.4c-0.1,0.1-0.2,0.2-0.4,0.2
		c-0.3,0.1-0.6,0.1-0.8,0.1c-0.2-0.1-0.3-0.2-0.5-0.4c-0.1-0.2-0.2-0.4-0.2-0.7C64.5,68.1,64.4,67.8,64.4,67.4z"/>
	<path d="M81.7,61.5c-0.3,0.4-0.6,0.8-1.1,1.2c-0.4,0.4-0.9,0.9-1.4,1.3s-1,0.8-1.5,1.1c-0.5,0.3-1,0.6-1.4,0.7
		c-0.4,0.1-0.8,0.2-1,0.2c-0.3,0-0.5-0.1-0.7-0.3c-0.2-0.1-0.3-0.4-0.4-0.6c-0.1-0.3-0.1-0.6-0.1-0.9c0-0.5,0.1-1.1,0.2-1.8
		c0.2-1.5,0.4-2.3,0.4-2.5c0.1-0.4,0.3-1.2,0.6-2.5c0.3-1.1,0.5-1.7,0.6-2c0-0.2,0.1-0.4,0.3-0.7c0.2-0.2,0.3-0.4,0.5-0.5
		c0.2-0.2,0.4-0.3,0.6-0.4c0.2-0.1,0.4-0.2,0.6-0.3c0.3-0.1,0.5-0.1,0.7,0c0.1,0.1,0.2,0.2,0.2,0.4c0,0.2,0,0.4-0.1,0.8
		c-0.1,0.3-0.2,0.7-0.3,1.2c-0.1,0.4-0.3,1-0.5,1.7s-0.3,1.3-0.4,1.8c-0.1,0.5-0.2,1-0.3,1.4c-0.1,0.5-0.2,0.9-0.2,1.3
		c0,0.4,0,0.6,0.1,0.8c0.1,0.2,0.2,0.2,0.5,0.2c0.3-0.1,0.6-0.3,0.9-0.6c0.3-0.3,0.7-0.7,1-1.1c0.4-0.4,0.7-0.8,1-1.2
		c0.3-0.4,0.6-0.8,0.9-1.1V61.5z M76.5,50.8c0-0.2,0-0.4,0.1-0.7c0.1-0.3,0.2-0.5,0.4-0.8c0.2-0.3,0.4-0.5,0.7-0.8
		c0.3-0.2,0.7-0.4,1.1-0.6c0.3-0.1,0.5-0.1,0.8-0.2c0.2,0,0.5,0,0.6,0.1c0.2,0.1,0.3,0.2,0.4,0.4c0.1,0.2,0.2,0.4,0.2,0.7
		c0,0.3,0,0.6-0.1,0.8c-0.1,0.3-0.2,0.6-0.4,0.8c-0.2,0.3-0.4,0.5-0.7,0.7c-0.3,0.2-0.6,0.4-1,0.5c-0.7,0.2-1.2,0.2-1.5,0
		C76.7,51.7,76.5,51.3,76.5,50.8z"/>
	<path d="M80.6,60c0.4-0.5,0.8-1,1.1-1.3c0.3-0.4,0.5-0.7,0.8-1.2c0.3-0.4,0.5-0.8,0.7-1.1c0.2-0.3,0.4-0.6,0.6-1
		c0.2-0.4,0.5-0.8,0.8-1.4c0.3-0.5,0.7-1.2,1.2-2c0.1-0.2,0.2-0.4,0.3-0.5s0.3-0.3,0.4-0.5c0.2-0.2,0.3-0.3,0.5-0.4
		c0.2-0.1,0.4-0.2,0.6-0.3c0.4-0.1,0.7-0.2,0.9-0.2c0.2,0,0.4,0.1,0.4,0.2c0.1,0.1,0.1,0.2,0.2,0.3c0,0.1,0,0.2,0,0.3
		c0,0.2-0.1,0.4-0.2,0.7c-0.1,0.3-0.3,0.6-0.5,0.8c-0.2,0.3-0.4,0.5-0.5,0.8c-0.2,0.2-0.3,0.4-0.3,0.5c0,0.2,0,0.5,0.1,0.7
		c0,0.2,0.1,0.4,0.1,0.6c0.1,0.2,0.1,0.4,0.2,0.6c0.1,0.2,0.1,0.4,0.2,0.7c0.1,0.3,0.1,0.7,0,1.2c0,0.5-0.1,1-0.1,1.6
		c0.3-0.3,0.6-0.6,0.9-0.8c0.3-0.3,0.7-0.5,1-0.8c0.4-0.3,0.7-0.6,1.1-0.9c0.4-0.3,0.7-0.7,1.1-1.1l0,2.7c-0.5,0.5-1,1.1-1.7,1.6
		c-0.6,0.5-1.3,1.1-2,1.5c-0.7,0.5-1.4,0.9-2.1,1.3c-0.7,0.4-1.4,0.7-2,0.9c-0.5,0.2-0.9,0.3-1.3,0.3c-0.4,0.1-0.8,0-1.1,0
		c-0.3-0.1-0.5-0.2-0.7-0.5c-0.2-0.2-0.3-0.5-0.3-0.9c-0.1,0.1-0.2,0.1-0.3,0.2c-0.1,0-0.2,0.1-0.3,0.1c-0.1,0-0.2,0.1-0.4,0.1
		c-0.1,0-0.2,0-0.3,0c-0.1,0-0.1-0.1-0.2-0.2c0-0.1-0.1-0.3-0.1-0.5c0-0.2,0-0.4,0.1-0.6c0.1-0.2,0.2-0.4,0.3-0.6
		c0.1-0.2,0.3-0.3,0.4-0.5C80.4,60.1,80.5,60,80.6,60z M82.1,61c0.1,0,0.2,0,0.3,0.1c0.1,0.1,0.2,0.2,0.4,0.3
		c0.1,0.1,0.3,0.2,0.5,0.2c0.2,0.1,0.4,0,0.7,0c0.3-0.1,0.6-0.2,0.8-0.4c0.2-0.2,0.4-0.4,0.5-0.6c0.1-0.2,0.2-0.4,0.2-0.7
		c0-0.2,0.1-0.5,0.1-0.7c0-0.2,0-0.4,0-0.6s0-0.5,0-0.8c0-0.3,0-0.6,0-0.8c-0.1-0.2-0.1-0.3-0.1-0.4L82.1,61z"/>
	<path d="M94.8,53.1c0.3-0.5,0.6-1,0.9-1.5s0.7-1.1,1-1.6c0.3-0.5,0.7-1,1-1.6c0.3-0.5,0.6-0.9,0.7-1.1c0.2-0.3,0.5-0.5,0.9-0.8
		c0.4-0.2,0.7-0.4,1.2-0.6c0.2-0.1,0.4-0.1,0.6-0.1c0.2,0,0.4,0.1,0.5,0.3c0.1,0.1,0.3,0.3,0.4,0.6c0.1,0.2,0.1,0.5,0.1,0.9
		c0,0.3-0.1,0.8-0.3,1.3c-0.2,0.5-0.4,1-0.7,1.4s-0.5,0.8-0.8,1.3c-0.3,0.4-0.5,0.9-0.8,1.3c-0.2,0.4-0.4,0.8-0.6,1.2
		c-0.2,0.4-0.2,0.8-0.2,1.1c0,0.3,0.1,0.5,0.2,0.6c0.1,0.1,0.4,0.1,0.6,0c0.2-0.1,0.3-0.2,0.5-0.3c0.2-0.2,0.4-0.4,0.6-0.6
		c0.2-0.2,0.4-0.5,0.6-0.8c0.2-0.3,0.4-0.6,0.6-0.9c0.2-0.3,0.4-0.6,0.5-0.8c0.2-0.3,0.3-0.5,0.4-0.7l0.7,2.7
		c-0.2,0.4-0.6,0.8-0.9,1.2c-0.4,0.4-0.8,0.8-1.2,1.2c-0.4,0.4-0.9,0.7-1.4,1c-0.5,0.3-0.9,0.5-1.3,0.6c-0.6,0.2-1,0.3-1.4,0.3
		c-0.4,0-0.6-0.1-0.8-0.2c-0.2-0.1-0.3-0.3-0.4-0.6C96.1,57.5,96,57.2,96,57c0-0.2,0-0.4,0.1-0.7c0-0.3,0.1-0.6,0.2-1
		c0.1-0.4,0.3-0.8,0.5-1.3c0.2-0.5,0.5-1,0.9-1.6c0.1-0.2,0.3-0.4,0.4-0.5c0.1-0.2,0.2-0.3,0.3-0.4c0.1-0.1,0.2-0.2,0.2-0.3
		c0-0.1,0.1-0.2,0.1-0.3c0-0.2,0-0.3-0.1-0.4c-0.1-0.1-0.1-0.1-0.3-0.1c-0.1,0-0.3,0.2-0.5,0.4c-0.2,0.3-0.5,0.7-0.7,1.2l-3.5,7.3
		c-0.2,0.4-0.4,0.6-0.6,0.8c-0.2,0.2-0.4,0.3-0.7,0.4c-0.3,0.1-0.6,0.1-0.8,0.1c-0.2-0.1-0.3-0.2-0.4-0.4c-0.1-0.2-0.2-0.5-0.2-0.8
		c0-0.3,0-0.6,0-1c0-0.5,0-1.1,0-1.8c0-0.8,0.1-1.6,0.1-2.6s0.1-1.9,0.3-2.9c0.1-1,0.2-2,0.4-3c0.1-0.3,0.1-0.8,0.2-1.3
		c0.1-0.5,0.2-1,0.3-1.6c0.1-0.6,0.3-1.2,0.5-1.8c0.2-0.6,0.4-1.3,0.6-1.9c0.2-0.6,0.5-1.2,0.8-1.8c0.3-0.6,0.6-1.1,1-1.6
		c0.4-0.5,0.8-0.9,1.2-1.3c0.4-0.4,0.9-0.6,1.4-0.8c0.4-0.1,0.7-0.2,1-0.1c0.3,0,0.5,0.2,0.6,0.3c0.2,0.2,0.3,0.4,0.3,0.7
		c0.1,0.3,0.1,0.6,0.1,1c0,0.7-0.1,1.4-0.3,2.3c-0.2,0.8-0.4,1.7-0.6,2.6c-0.3,0.9-0.5,1.7-0.8,2.6c-0.3,0.8-0.6,1.6-0.9,2.3
		c-0.3,0.7-0.5,1.3-0.7,1.8c-0.2,0.5-0.4,0.8-0.4,1L94.6,53L94.8,53.1z M97.1,38.8c-0.3,0.1-0.5,0.2-0.7,0.5
		c-0.2,0.2-0.4,0.5-0.5,0.9c-0.2,0.3-0.3,0.8-0.5,1.2c-0.2,0.5-0.3,1-0.6,1.6c-0.1,0.5-0.2,1-0.3,1.5c-0.1,0.5-0.2,1-0.3,1.6
		c-0.1,0.5-0.1,1-0.2,1.5c-0.1,0.5-0.1,0.9-0.2,1.4c-0.1,1-0.2,2.1-0.3,3.1c0.2-0.6,0.4-1.2,0.6-1.9c0.2-0.7,0.4-1.4,0.6-2.1
		c0.2-0.7,0.4-1.3,0.6-1.9c0.2-0.6,0.3-1.1,0.4-1.5c0.1-0.2,0.1-0.4,0.2-0.7c0.1-0.3,0.2-0.6,0.3-1c0.1-0.3,0.2-0.7,0.4-1.1
		c0.1-0.4,0.2-0.7,0.3-1.1c0.1-0.3,0.2-0.6,0.2-0.9c0.1-0.3,0.1-0.5,0.1-0.7C97.4,38.8,97.3,38.7,97.1,38.8z"/>
	<path d="M113.4,43.2c-0.1-0.2-0.3-0.5-0.5-0.8c-0.2-0.3-0.3-0.7-0.4-1c-0.1-0.4-0.2-0.8-0.3-1.1c-0.1-0.4-0.1-0.8-0.1-1.2
		c0-0.7,0.1-1.3,0.4-2c0.3-0.7,0.6-1.4,1.1-2c0.5-0.6,1-1.2,1.6-1.7s1.2-0.8,1.9-1.1c0.6-0.2,1.1-0.3,1.6-0.3c0.5,0,0.9,0.1,1.2,0.4
		c0.3,0.2,0.6,0.5,0.8,0.9c0.2,0.4,0.3,0.8,0.3,1.4c0,0.4-0.1,0.9-0.2,1.5c-0.1,0.5-0.4,1.1-0.7,1.8c-0.3,0.6-0.8,1.3-1.3,2
		c-0.5,0.7-1.2,1.4-1.9,2.1c0.1,0.2,0.3,0.4,0.5,0.7c0.2,0.3,0.5,0.6,0.8,1c0.3,0.4,0.6,0.7,0.9,1.1c0.3,0.4,0.6,0.8,0.8,1.1
		c0.2-0.2,0.3-0.3,0.4-0.5s0.2-0.3,0.2-0.5c0-0.1,0.1-0.3,0.1-0.4c0-0.1,0-0.3,0-0.4c0-0.3,0-0.6-0.1-0.7c-0.1-0.2-0.2-0.4-0.3-0.5
		c-0.1-0.2-0.3-0.3-0.5-0.5c-0.2-0.2-0.4-0.4-0.6-0.7c0,0,0,0,0.1-0.1c0-0.1,0.1-0.1,0.1-0.2c0.1-0.1,0.1-0.1,0.1-0.2
		c0-0.1,0.1-0.1,0.1-0.1c0.1,0,0.3-0.1,0.5,0c0.2,0,0.5,0.1,0.7,0.2c0.3,0.1,0.5,0.2,0.8,0.4c0.3,0.2,0.5,0.4,0.8,0.6
		c0.2,0.2,0.4,0.5,0.6,0.8c0.1,0.3,0.2,0.7,0.2,1.1c0,0.5-0.1,1-0.4,1.7c-0.3,0.6-0.8,1.3-1.4,2.1c0,0,0.1,0,0.2,0.1
		c0.1,0.1,0.3,0.1,0.5,0.2c0.2,0.1,0.4,0.2,0.5,0.2c0.2,0.1,0.3,0.1,0.4,0.2c0.1,0.1,0.2,0.2,0.2,0.4c0,0.2-0.1,0.4-0.2,0.6
		c-0.1,0.2-0.2,0.5-0.4,0.7c-0.2,0.2-0.3,0.4-0.5,0.6c-0.2,0.2-0.4,0.3-0.6,0.4c-0.2,0.1-0.3,0.1-0.5,0c-0.1,0-0.3-0.1-0.4-0.3
		c-0.2-0.1-0.4-0.3-0.6-0.4c-0.2-0.1-0.4-0.3-0.5-0.4s-0.2-0.2-0.2-0.2c-0.4,0.4-0.8,0.8-1.3,1.2c-0.4,0.3-0.9,0.7-1.5,1
		c-0.6,0.3-1.2,0.6-2,0.9c-0.9,0.3-1.8,0.5-2.5,0.5c-0.7,0-1.3,0-1.8-0.3c-0.5-0.2-0.8-0.5-1.1-0.9s-0.4-0.9-0.4-1.4
		c0-0.5,0.1-1.1,0.3-1.7c0.2-0.6,0.5-1.2,0.9-1.9c0.4-0.7,0.9-1.4,1.5-2.1C111.9,44.6,112.6,43.9,113.4,43.2z M114.5,50.7
		c0.5-0.2,1-0.4,1.5-0.8c0.5-0.3,0.9-0.7,1.4-1.2c-0.3-0.3-0.6-0.6-0.9-0.8c-0.3-0.3-0.5-0.5-0.8-0.8c-0.2-0.3-0.5-0.6-0.8-1
		c-0.3-0.4-0.6-0.8-0.9-1.3c-0.4,0.4-0.7,0.8-1,1.3c-0.3,0.4-0.5,0.8-0.7,1.2c-0.2,0.4-0.4,0.8-0.5,1.2c-0.1,0.4-0.2,0.7-0.2,1
		c0,0.3,0.1,0.6,0.2,0.8c0.1,0.2,0.3,0.4,0.5,0.5c0.2,0.1,0.5,0.2,0.9,0.2C113.6,50.9,114,50.8,114.5,50.7z M117.2,34.9
		c-0.2,0.1-0.4,0.2-0.6,0.4c-0.2,0.2-0.4,0.4-0.6,0.6c-0.2,0.3-0.3,0.5-0.4,0.8c-0.1,0.3-0.2,0.6-0.2,0.9c0,0.3,0,0.6,0.1,0.9
		c0.1,0.3,0.2,0.7,0.3,1c0.1,0.3,0.2,0.6,0.3,0.8c0.1,0.2,0.1,0.3,0.1,0.3c0.4-0.5,0.7-1,1.1-1.4c0.3-0.4,0.6-0.9,0.8-1.3
		c0.2-0.4,0.4-0.8,0.5-1.2c0.1-0.4,0.2-0.7,0.2-1.1c0-0.2,0-0.4-0.1-0.5s-0.1-0.3-0.3-0.3c-0.1-0.1-0.3-0.1-0.5-0.1
		C117.7,34.7,117.5,34.8,117.2,34.9z"/>
	<path d="M134.4,57.2c-0.3,0-0.6,0-0.9-0.1c-0.3-0.1-0.5-0.3-0.7-0.5c-0.2-0.3-0.3-0.6-0.3-1.1c-0.1-0.8,0.2-1.8,0.7-2.9
		c0.3-0.6,0.5-1.1,0.6-1.3c0.1-0.2,0.3-0.6,0.6-1.1c0.3-0.5,0.5-0.9,0.8-1.3c0.5-0.8,1-1.5,1.4-2s0.8-1.1,1.3-1.7l0.2-1.5
		c-0.9,1.1-1.7,1.9-2.6,2.1c-0.6,0.2-1.2,0.2-1.7,0c-0.5-0.2-0.9-0.5-1.2-1c-0.5-0.8-0.5-2,0-3.5c0.4-1.4,0.8-2.5,1.2-3.5
		c0.4-0.9,1-1.8,1.6-2.7c1-1.2,1.9-1.9,2.8-2.2c0.4-0.1,0.7-0.1,0.9,0c0,0,0.1,0.1,0.1,0.1c0,0.1,0.1,0.1,0.1,0.1c0,0,0.1,0,0.1,0.1
		c0,0,0.1,0,0.1,0c0,0,0.1,0,0.2,0c0.1,0,0.1,0,0.2,0c0.1,0,0.2,0,0.3-0.1l0.5-0.2c0.4-0.1,0.6-0.1,0.7,0.1c0,0.1,0.1,0.2,0.2,0.3
		c0.1,0.2,0.1,1,0,2.4c0,0.4-0.1,1-0.3,1.7c-0.2,0.7-0.3,1.4-0.3,2.2c-0.1,0.8-0.1,1.8-0.3,3.1c0.2-0.2,0.5-0.5,0.7-0.7
		c0.9-1,2-2.7,3.1-5l0.8,2.4c-0.2,0.5-0.6,1.2-1.2,1.9c-0.6,0.8-1,1.4-1.4,1.8c-0.1,0.1-0.1,0.1-0.2,0.2c-0.8,0.7-1.3,1.3-1.6,1.6
		c-0.2,0.2-0.4,0.5-0.4,0.9c-0.1,0.4-0.2,1.1-0.3,2.2c0,0.3-0.1,0.5-0.1,0.7c0,0.4-0.1,0.7-0.1,1.1c0,0.4-0.1,0.8-0.2,1.3
		c-0.1,0.5-0.2,0.9-0.4,1.3c-0.1,0.4-0.3,0.9-0.6,1.3s-0.5,0.9-0.8,1.2c-0.3,0.4-0.7,0.7-1.1,1c-0.4,0.3-0.9,0.5-1.4,0.7
		C135.1,57,134.8,57.1,134.4,57.2z M136.1,50.6c-0.5,1.1-1,2.1-1.3,3.1c-0.3,0.8-0.1,1.2,0.4,1c0.2-0.1,0.4-0.1,0.5-0.2
		c0.1-0.1,0.3-0.2,0.4-0.4c0.1-0.2,0.2-0.3,0.3-0.5c0.1-0.2,0.2-0.4,0.3-0.7c0.1-0.3,0.2-0.6,0.3-0.9c0.1-0.3,0.2-0.7,0.3-1.1
		c0.1-0.3,0.1-0.5,0.2-0.8c0-0.3,0.1-0.6,0.1-1.1c0-0.4,0.1-0.7,0.1-0.8C137.2,48.7,136.7,49.5,136.1,50.6z M135.4,43.1
		c0.2,0.3,0.4,0.4,0.7,0.2c0.5-0.2,1-0.8,1.3-1.8c0.3-0.8,0.4-1.5,0.5-2.2l0.9-4.3c-0.9,0.3-1.7,1.2-2.4,2.7
		c-0.7,1.6-1.2,2.6-1.2,3.1C135.1,41.9,135.1,42.7,135.4,43.1z"/>
	<path d="M147.1,41.9c-0.4,0.1-0.8,0.1-1.2-0.2c-0.4-0.2-0.7-0.6-0.9-1.2c-0.3-0.5-0.5-1.2-0.6-2s-0.2-1.6-0.2-2.5
		c0-0.8,0.1-1.9,0.3-3.2c0.2-1.4,0.3-2.1,0.3-2.1c0,0,0.2-0.7,0.5-2.1c0.3-1.4,0.7-2.6,1-3.5c0.3-0.9,0.7-1.8,1.1-2.6
		c0.4-0.8,0.8-1.6,1.3-2.2c0.4-0.7,0.9-1.2,1.4-1.7c0.5-0.5,1-0.8,1.5-0.9c0.4-0.1,0.7-0.2,0.9-0.1c0.2,0.1,0.4,0.2,0.6,0.4
		c0.1,0.2,0.2,0.4,0.3,0.7c0.1,0.3,0.1,0.6,0.1,0.9c0,0.8-0.1,1.5-0.3,2.4c-0.2,0.8-0.4,1.7-0.7,2.6c-0.3,0.9-0.6,1.8-1,2.7
		c-0.4,0.9-0.8,1.8-1.2,2.8c-0.4,0.9-0.9,1.8-1.3,2.7c-0.4,0.9-0.8,1.8-1.2,2.6c0,0.1-0.1,0.2-0.1,0.4c0,0.1-0.1,0.3-0.1,0.5
		c0,0.2-0.1,0.3-0.1,0.5c0,0.2-0.1,0.4-0.1,0.5v0.2c0,0.2,0,0.4,0.1,0.6c0,0.2,0.1,0.3,0.2,0.5c0.1,0.1,0.1,0.2,0.2,0.3
		c0.1,0.1,0.1,0.1,0.2,0.1c0.2-0.1,0.3-0.1,0.5-0.3c0.2-0.1,0.4-0.3,0.6-0.5c0.2-0.2,0.4-0.4,0.7-0.6c0.2-0.2,0.5-0.4,0.7-0.7
		c0.5-0.5,1-1.1,1.6-1.7l1,2.2c-0.7,0.7-1.4,1.4-2.1,2c-0.3,0.3-0.6,0.5-1,0.8c-0.3,0.3-0.7,0.5-1,0.7c-0.3,0.2-0.7,0.4-1,0.6
		C147.7,41.7,147.4,41.8,147.1,41.9z M147.1,32.5c0.4-0.8,0.7-1.6,1.1-2.5c0.4-0.9,0.8-1.9,1.1-2.9c0.4-1,0.7-1.9,0.9-2.9
		c0.3-0.9,0.4-1.8,0.5-2.5c0-0.2,0-0.4,0-0.6c0-0.2,0-0.2-0.1-0.2c-0.2,0.1-0.4,0.3-0.7,0.7c-0.2,0.4-0.5,0.9-0.7,1.5
		c-0.2,0.6-0.5,1.5-0.9,2.8c-0.3,1.3-0.5,1.9-0.5,1.9c0,0-0.1,0.6-0.3,1.7C147.3,30.6,147.1,31.6,147.1,32.5z"/>
	<path d="M163.2,33.5c-0.2,0.3-0.4,0.7-0.7,1.2c-0.3,0.4-0.6,0.9-1,1.3c-0.4,0.4-0.8,0.8-1.2,1.2c-0.4,0.4-0.9,0.6-1.3,0.8
		c-0.5,0.2-1,0.2-1.3-0.1c-0.3-0.2-0.6-0.6-0.9-1.2c-0.2,0.3-0.4,0.6-0.7,0.9s-0.6,0.6-0.9,0.9c-0.3,0.3-0.7,0.6-1,0.8
		c-0.4,0.2-0.7,0.4-1.1,0.5c-0.4,0.1-0.7,0.2-1.1,0.1s-0.7-0.2-0.9-0.4c-0.3-0.2-0.5-0.5-0.7-0.8c-0.2-0.4-0.2-0.8-0.2-1.3
		c0-0.6,0.1-1.2,0.2-1.9c0.2-0.7,0.4-1.4,0.8-2.3c0.3-0.8,0.7-1.6,1.1-2.3c0.4-0.7,0.8-1.3,1.3-1.8c0.5-0.6,1-1,1.5-1.5
		c0.5-0.4,1.1-0.7,1.6-0.9c0.2-0.1,0.3-0.1,0.4,0c0.1,0,0.2,0.1,0.3,0.2c0.1,0.1,0.1,0.1,0.2,0.2c0.1,0.1,0.1,0.1,0.2,0.1
		c0.1,0,0.2,0,0.3,0c0.1,0,0.2,0,0.3-0.1c0.1,0,0.2-0.1,0.3-0.1c0.1,0,0.2-0.1,0.3-0.1c0.1,0,0.2-0.1,0.3-0.1c0.1,0,0.2,0,0.3,0.1
		c0.1,0.1,0.1,0.1,0.2,0.3c0,0.1,0.1,0.3,0.1,0.6c0,0.4,0,0.8-0.1,1.3c-0.1,0.5-0.2,1-0.3,1.5c-0.1,0.5-0.2,1.1-0.3,1.8
		c-0.1,0.7-0.2,1.2-0.2,1.6c0,0.4,0,0.6,0.1,0.8c0.1,0.2,0.2,0.2,0.4,0.2c0.2-0.1,0.3-0.2,0.5-0.3c0.2-0.1,0.4-0.3,0.5-0.5
		c0.2-0.2,0.4-0.4,0.6-0.6c0.2-0.2,0.4-0.5,0.5-0.7c0.4-0.6,0.8-1.2,1.2-1.8L163.2,33.5z M153.1,36c0,0.2,0,0.4,0,0.6
		c0,0.2,0.1,0.3,0.1,0.5c0.1,0.1,0.2,0.2,0.3,0.3c0.1,0.1,0.3,0.1,0.4,0c0.3-0.1,0.6-0.3,0.8-0.7c0.2-0.3,0.4-0.7,0.6-1.1
		c0.2-0.4,0.3-0.8,0.4-1.3c0.1-0.4,0.2-0.8,0.2-1l0.9-4.2c-0.3,0.1-0.6,0.3-0.9,0.6c-0.3,0.3-0.6,0.6-0.9,0.9s-0.5,0.8-0.7,1.2
		c-0.2,0.4-0.5,0.9-0.7,1.5c-0.2,0.6-0.4,1.1-0.5,1.5C153.1,35.3,153.1,35.7,153.1,36z"/>
	<path d="M175.6,29.8c-0.6,0.7-1.1,1.3-1.6,1.8c-0.2,0.2-0.5,0.5-0.7,0.7c-0.3,0.2-0.5,0.4-0.7,0.6c-0.2,0.2-0.5,0.4-0.7,0.5
		c-0.2,0.1-0.4,0.3-0.6,0.3c-0.1,0-0.3,0.1-0.5,0.1c-0.2,0-0.5,0-0.7-0.1c-0.3-0.1-0.5-0.2-0.8-0.4c-0.3-0.2-0.5-0.5-0.7-0.9
		c-0.3,0.4-0.6,0.8-0.9,1.2c-0.3,0.4-0.7,0.7-1,1.1c-0.3,0.3-0.7,0.6-1.1,0.8c-0.4,0.2-0.7,0.4-1.1,0.6c-0.5,0.2-1,0.2-1.3,0.1
		c-0.4-0.1-0.7-0.3-0.9-0.5c-0.2-0.3-0.4-0.6-0.6-1c-0.1-0.4-0.2-0.9-0.2-1.3c0-0.5,0.1-1.1,0.2-1.6c0.1-0.6,0.3-1.1,0.6-1.7
		c0.2-0.6,0.5-1.2,0.8-1.8c0.3-0.6,0.7-1.3,1.2-1.9c0.5-0.6,1-1.1,1.5-1.5c0.5-0.4,1.1-0.7,1.7-1c0-1,0.1-2,0.3-2.8
		c0.2-0.9,0.4-1.8,0.6-2.8c0.2-1,0.5-1.9,0.9-2.8c0.4-0.9,0.7-1.7,1.2-2.4c0.4-0.7,0.9-1.3,1.3-1.8c0.5-0.5,1-0.8,1.5-1
		c0.4-0.1,0.7-0.1,0.9,0c0.3,0.1,0.5,0.3,0.6,0.6c0.2,0.3,0.3,0.6,0.3,1c0.1,0.4,0.1,0.8,0.1,1.3c0,0.3,0,0.6,0,0.9
		c0,1.2-0.2,2.3-0.5,3.4c-0.3,1.1-0.6,2.2-1,3.2c-0.3,1.1-0.7,2.2-1.1,3.2c-0.7,1.7-1.1,2.8-1.3,3.4c0,0.1-0.1,0.3-0.1,0.5
		c0,0.2-0.1,0.4-0.1,0.6c0,0.2-0.1,0.4-0.1,0.6c0,0.2,0,0.4,0,0.6c0,0.2,0,0.4,0,0.7c0,0.2,0.1,0.4,0.1,0.5c0.1,0.1,0.1,0.2,0.2,0.3
		c0.1,0.1,0.2,0.1,0.4,0c0.1-0.1,0.3-0.1,0.5-0.3c0.2-0.1,0.4-0.3,0.6-0.4c0.2-0.2,0.4-0.4,0.6-0.6c0.2-0.2,0.4-0.4,0.6-0.6
		c0.4-0.5,0.9-1,1.4-1.6L175.6,29.8z M167.4,25.5c-0.5,0.4-1,0.9-1.4,1.5c-0.4,0.6-0.7,1.2-1,2c-0.3,0.8-0.5,1.4-0.6,2
		s-0.2,1-0.2,1.4c0,0.1,0,0.2,0.1,0.4c0,0.1,0.1,0.2,0.2,0.3c0.1,0.1,0.2,0.1,0.4,0.1c0.2,0,0.4,0,0.7-0.1c0.1,0,0.3-0.1,0.4-0.2
		c0.1-0.1,0.3-0.2,0.4-0.4c0.1-0.1,0.2-0.3,0.4-0.5c0.1-0.2,0.2-0.3,0.3-0.5c0.2-0.4,0.4-0.8,0.6-1.3c0-0.1,0-0.3-0.1-0.5
		c0-0.2,0-0.6,0-1.1c0-0.5,0-0.9,0-1.2c0-0.3,0-0.6,0-0.9c0-0.3,0-0.5,0-0.6C167.4,25.6,167.4,25.5,167.4,25.5z M173,15.5
		c0-0.6,0.1-1,0.1-1.3c0-0.4,0-0.7-0.1-0.9c-0.1-0.1-0.2-0.2-0.3-0.1c-0.3,0.1-0.5,0.3-0.7,0.7c-0.2,0.4-0.4,0.9-0.5,1.4
		c-0.1,0.6-0.3,1.2-0.4,1.8c-0.1,0.6-0.3,1.3-0.3,1.9c-0.1,0.6-0.1,1.1-0.2,1.6c0,0.5-0.1,0.8-0.1,1c0,0.4-0.1,0.8-0.1,1.2
		c0,0.4,0,0.7,0,1c0,0.3,0,0.6,0,0.8c0,0.2,0,0.4,0,0.5v0.1c0.4-1.2,0.8-2.4,1.2-3.6c0.2-0.5,0.3-1,0.5-1.6c0.1-0.5,0.3-1.1,0.4-1.6
		c0.1-0.5,0.3-1,0.4-1.5C172.8,16.4,172.9,15.9,173,15.5z"/>
	<path d="M191.1,24.3c-0.8,0.7-1.4,1.3-2,1.9c-0.6,0.5-1.1,1-1.6,1.4c-0.5,0.4-0.9,0.7-1.2,0.9c-0.4,0.2-0.7,0.4-1,0.5
		c-0.6,0.2-1.1,0.2-1.6,0c-0.5-0.2-0.8-0.6-1.1-1.2c-0.3-0.6-0.5-1.3-0.7-2.3c-0.2-0.9-0.2-2-0.2-3.2c0-0.5,0-1,0.1-1.5
		c0-0.6,0.1-1.1,0.2-1.7c-0.2,0-0.4,0.1-0.6,0.1c-0.1,0-0.3,0-0.4,0c-0.1,0-0.3,0-0.6,0.1c-0.2,0-0.6,0.1-1,0.2c-0.2,0-0.3,0-0.4,0
		c-0.1,0-0.2-0.1-0.2-0.2c0-0.1-0.1-0.2-0.1-0.3c0-0.1,0-0.2,0-0.3c0-0.1,0.1-0.2,0.2-0.4c0.2-0.1,0.4-0.2,0.6-0.3
		c0.2-0.1,0.5-0.2,0.8-0.3c0.3-0.1,0.6-0.2,0.8-0.3c0.3-0.1,0.5-0.2,0.7-0.2c0.2-0.1,0.4-0.1,0.4-0.2c0.2-1.1,0.5-2.3,0.8-3.4
		c0.3-1.1,0.7-2.1,1.1-3c0.4-0.9,0.8-1.7,1.3-2.3c0.5-0.6,1-1,1.5-1.2c0.3-0.1,0.6-0.1,0.9,0c0.3,0.1,0.5,0.3,0.7,0.5
		c0.2,0.3,0.3,0.6,0.5,1c0.1,0.4,0.2,0.8,0.2,1.3c0,0.4-0.1,0.8-0.2,1.3c-0.1,0.5-0.3,0.9-0.4,1.4c-0.2,0.5-0.4,1-0.7,1.6
		c-0.3,0.5-0.5,1.1-0.8,1.6c0.1-0.1,0.2-0.1,0.4-0.1c0.2,0,0.4-0.1,0.6-0.2c0.2-0.1,0.4-0.1,0.7-0.2c0.3-0.1,0.5-0.2,0.7-0.2
		c0.2-0.1,0.5-0.1,0.7-0.2c0.2-0.1,0.4-0.1,0.5-0.1c0.2,0,0.3,0,0.3,0.1c0.1,0.1,0.1,0.3,0.1,0.6c0,0.3-0.1,0.6-0.2,0.8
		c-0.2,0.2-0.3,0.4-0.5,0.5l-4.5,1.5c-0.2,0.4-0.5,0.8-0.7,1.2c-0.2,0.4-0.4,0.7-0.6,1c0,0.5-0.1,1-0.1,1.5c0,0.2,0,0.4,0,0.6
		c0,0.2,0,0.4,0,0.7c0,0.2,0,0.4,0,0.6c0,0.2,0,0.4,0,0.6c0,0.4,0,0.8,0.1,1c0.1,0.3,0.2,0.5,0.3,0.6c0.2,0.1,0.3,0.2,0.5,0.2
		c0.2,0,0.5,0,0.7-0.1c0.2-0.1,0.4-0.2,0.6-0.3c0.2-0.2,0.5-0.4,0.8-0.6c0.3-0.2,0.6-0.5,0.9-0.8c0.3-0.3,0.6-0.6,1-1
		c0.3-0.3,0.6-0.7,0.9-1c0.3-0.3,0.6-0.7,0.8-1V24.3z M187.3,10.5c0-0.1,0-0.2,0-0.3c0-0.1,0-0.2-0.1-0.3s-0.1-0.1-0.2-0.2
		c-0.1,0-0.2,0-0.3,0c-0.2,0.1-0.4,0.3-0.6,0.8c-0.2,0.4-0.4,1-0.6,1.6c-0.2,0.6-0.4,1.3-0.5,2c-0.2,0.7-0.3,1.4-0.5,2.1
		c0.1,0,0.2-0.1,0.4-0.1c0.1,0,0.2-0.1,0.4-0.1c0.2-0.5,0.5-1,0.7-1.6c0.3-0.6,0.5-1.1,0.7-1.6c0.2-0.5,0.4-1,0.5-1.4
		C187.3,11.1,187.3,10.7,187.3,10.5z"/>
	<path d="M197.3,22.3c-0.3,0.4-0.6,0.8-1.1,1.2c-0.4,0.4-0.9,0.9-1.4,1.3c-0.5,0.4-1,0.8-1.5,1.1c-0.5,0.3-1,0.6-1.4,0.7
		c-0.4,0.1-0.8,0.2-1,0.2c-0.3,0-0.5-0.1-0.7-0.3c-0.2-0.1-0.3-0.4-0.4-0.6c-0.1-0.3-0.1-0.6-0.1-0.9c0-0.5,0.1-1.1,0.2-1.8
		c0.2-1.5,0.4-2.3,0.4-2.5c0.1-0.4,0.3-1.2,0.6-2.5c0.3-1.1,0.5-1.7,0.6-2c0-0.2,0.1-0.4,0.3-0.7c0.2-0.2,0.3-0.4,0.5-0.5
		c0.2-0.2,0.4-0.3,0.6-0.4c0.2-0.1,0.4-0.2,0.6-0.3c0.3-0.1,0.5-0.1,0.7,0c0.1,0.1,0.2,0.2,0.2,0.4c0,0.2,0,0.4-0.1,0.8
		c-0.1,0.3-0.2,0.7-0.3,1.2c-0.1,0.4-0.3,1-0.5,1.7c-0.2,0.7-0.3,1.3-0.4,1.8c-0.1,0.5-0.2,1-0.3,1.4c-0.1,0.5-0.2,0.9-0.2,1.3
		c0,0.4,0,0.6,0.1,0.8c0.1,0.2,0.2,0.2,0.5,0.2c0.3-0.1,0.6-0.3,0.9-0.6c0.3-0.3,0.7-0.7,1-1.1c0.4-0.4,0.7-0.8,1-1.2
		s0.6-0.8,0.9-1.1V22.3z M192.1,11.6c0-0.2,0-0.4,0.1-0.7c0.1-0.3,0.2-0.5,0.4-0.8c0.2-0.3,0.4-0.5,0.7-0.8c0.3-0.2,0.7-0.4,1.1-0.6
		c0.3-0.1,0.5-0.1,0.8-0.2c0.2,0,0.5,0,0.6,0.1c0.2,0.1,0.3,0.2,0.4,0.4c0.1,0.2,0.2,0.4,0.2,0.7c0,0.3,0,0.6-0.1,0.8
		c-0.1,0.3-0.2,0.6-0.4,0.8c-0.2,0.3-0.4,0.5-0.7,0.7c-0.3,0.2-0.6,0.4-1,0.5c-0.7,0.2-1.2,0.2-1.5,0
		C192.2,12.5,192.1,12.2,192.1,11.6z"/>
	<path d="M199.1,24.3c-0.4,0.1-0.8,0.1-1.2-0.2c-0.4-0.2-0.7-0.6-0.9-1.2c-0.3-0.5-0.5-1.2-0.6-2c-0.2-0.8-0.2-1.6-0.2-2.5
		c0-0.8,0.1-1.9,0.3-3.2c0.2-1.4,0.3-2.1,0.3-2.1c0,0,0.2-0.7,0.5-2.1c0.3-1.4,0.7-2.6,1-3.5c0.3-0.9,0.7-1.8,1.1-2.6
		c0.4-0.8,0.8-1.6,1.3-2.2c0.4-0.7,0.9-1.2,1.4-1.7c0.5-0.5,1-0.8,1.5-0.9C204,0,204.3,0,204.5,0s0.4,0.2,0.6,0.4
		c0.1,0.2,0.2,0.4,0.3,0.7c0.1,0.3,0.1,0.6,0.1,0.9c0,0.8-0.1,1.5-0.3,2.4c-0.2,0.8-0.4,1.7-0.7,2.6c-0.3,0.9-0.6,1.8-1,2.7
		c-0.4,0.9-0.8,1.8-1.2,2.8c-0.4,0.9-0.9,1.8-1.3,2.7c-0.4,0.9-0.8,1.8-1.2,2.6c0,0.1-0.1,0.2-0.1,0.4c0,0.1-0.1,0.3-0.1,0.5
		c0,0.2-0.1,0.3-0.1,0.5c0,0.2-0.1,0.4-0.1,0.5v0.2c0,0.2,0,0.4,0.1,0.6c0,0.2,0.1,0.3,0.2,0.5c0.1,0.1,0.1,0.2,0.2,0.3
		c0.1,0.1,0.1,0.1,0.2,0.1c0.2-0.1,0.3-0.1,0.5-0.3c0.2-0.1,0.4-0.3,0.6-0.5c0.2-0.2,0.4-0.4,0.7-0.6s0.5-0.4,0.7-0.7
		c0.5-0.5,1-1.1,1.6-1.7l1,2.2c-0.7,0.7-1.4,1.4-2.1,2c-0.3,0.3-0.6,0.5-1,0.8c-0.3,0.3-0.7,0.5-1,0.7c-0.3,0.2-0.7,0.4-1,0.6
		C199.7,24,199.4,24.2,199.1,24.3z M199.1,14.8c0.4-0.8,0.7-1.6,1.1-2.5c0.4-0.9,0.8-1.9,1.1-2.9c0.4-1,0.7-1.9,0.9-2.9
		c0.3-0.9,0.4-1.8,0.5-2.5c0-0.2,0-0.4,0-0.6c0-0.2,0-0.2-0.1-0.2c-0.2,0.1-0.4,0.3-0.7,0.7c-0.2,0.4-0.5,0.9-0.7,1.5
		c-0.2,0.6-0.5,1.5-0.9,2.8c-0.3,1.3-0.5,1.9-0.5,1.9c0,0-0.1,0.6-0.3,1.7C199.3,13,199.2,14,199.1,14.8z"/>
	<path d="M8.3,97.3v12.6l7.6-2.6V94.7l6.6-2.2v33l-6.6,2.2V113l-7.6,2.6v14.6l-6.6,2.2v-33L8.3,97.3z"/>
	<path d="M26.7,100.6c0.2-2.2,0.7-4.2,1.5-5.9c0.8-1.8,1.9-3.3,3.3-4.7c1.5-1.3,3.4-2.4,5.9-3.3c2.5-0.8,4.4-1.1,5.9-0.7
		c1.5,0.4,2.6,1.2,3.3,2.4c0.8,1.2,1.3,2.9,1.5,4.9c0.2,2,0.3,4.3,0.3,6.8c0,2.5-0.1,4.9-0.3,7c-0.2,2.2-0.7,4.1-1.5,5.9
		c-0.8,1.8-1.9,3.3-3.3,4.6c-1.5,1.3-3.4,2.4-5.9,3.2c-2.5,0.8-4.4,1.1-5.9,0.8c-1.5-0.3-2.6-1.1-3.3-2.3c-0.8-1.2-1.3-2.9-1.5-4.9
		s-0.3-4.3-0.3-6.8C26.4,105.2,26.5,102.8,26.7,100.6z M33.1,111c0.1,1.5,0.3,2.7,0.6,3.6c0.3,0.9,0.8,1.4,1.4,1.7
		c0.6,0.2,1.4,0.2,2.3-0.1c1-0.3,1.8-0.8,2.3-1.5c0.6-0.6,1-1.5,1.4-2.6c0.3-1.1,0.5-2.4,0.6-4c0.1-1.6,0.2-3.5,0.2-5.7
		s-0.1-4.1-0.2-5.6c-0.1-1.5-0.3-2.7-0.6-3.6c-0.3-0.9-0.8-1.4-1.4-1.7c-0.6-0.2-1.4-0.2-2.3,0.1c-1,0.3-1.8,0.8-2.3,1.5
		c-0.6,0.6-1,1.5-1.4,2.6c-0.3,1.1-0.5,2.4-0.6,4s-0.2,3.5-0.2,5.7S33,109.5,33.1,111z"/>
	<path d="M58.5,103.3c0,0.8,0.1,1.6,0.2,2.2c0.1,0.7,0.3,1.2,0.6,1.6c0.3,0.4,0.7,0.7,1.2,0.8c0.5,0.1,1.1,0.1,1.9-0.2
		c0.8-0.3,1.4-0.6,1.9-1.1c0.5-0.5,0.9-1,1.2-1.6c0.3-0.6,0.5-1.3,0.6-2c0.1-0.7,0.2-1.5,0.2-2.3v-23l6.6-2.2v23
		c0,2.1-0.3,3.9-0.9,5.5c-0.6,1.6-1.4,2.9-2.3,4c-1,1.1-2.1,2-3.3,2.7c-1.2,0.7-2.5,1.3-3.9,1.7c-1.3,0.5-2.6,0.8-3.9,0.9
		c-1.2,0.2-2.4,0.1-3.3-0.4c-1-0.4-1.7-1.2-2.3-2.4c-0.6-1.2-0.9-2.9-0.9-5.1v-23l6.6-2.2V103.3z"/>
	<path d="M82.1,95.9c0,0.8,0.1,1.4,0.2,2c0.1,0.6,0.3,1,0.7,1.4c0.3,0.3,0.8,0.5,1.3,0.6c0.6,0.1,1.3-0.1,2.1-0.3
		c1-0.3,1.9-1,2.7-1.9c0.8-0.9,1.2-2.1,1.2-3.5c0-0.7-0.1-1.3-0.3-1.8c-0.2-0.5-0.5-0.8-1-1.1c-0.5-0.3-1.1-0.5-1.8-0.6
		c-0.7-0.1-1.7-0.2-2.8-0.2c-1.5,0-2.7-0.1-3.8-0.3c-1.1-0.2-1.9-0.6-2.7-1.2c-0.7-0.5-1.2-1.3-1.6-2.2c-0.3-0.9-0.5-2.1-0.5-3.4
		c0-3.3,0.9-6,2.7-8.2c1.8-2.2,4.2-3.8,7.4-4.9c1.5-0.5,2.8-0.8,4-0.9c1.2-0.1,2.3,0.1,3.2,0.5c0.9,0.4,1.6,1.1,2.1,2.1
		c0.5,1,0.8,2.2,0.8,3.8v0.9l-6.3,2.1c0-1.6-0.3-2.7-0.8-3.3c-0.5-0.7-1.5-0.8-2.7-0.3c-0.7,0.2-1.3,0.6-1.8,0.9
		c-0.5,0.4-0.9,0.8-1.2,1.2c-0.3,0.5-0.5,0.9-0.6,1.4c-0.1,0.5-0.2,1-0.2,1.5c0,1,0.2,1.8,0.6,2.3c0.4,0.5,1.3,0.9,2.7,1L91,84
		c1.2,0.1,2.3,0.4,3,0.7c0.8,0.3,1.4,0.8,1.9,1.3c0.5,0.5,0.8,1.2,1,2c0.2,0.8,0.3,1.7,0.3,2.7c0,3.5-1,6.3-3,8.6
		c-2,2.3-4.8,4-8.3,5.2c-3.7,1.3-6.3,1.3-7.9,0.2c-1.6-1.1-2.4-3.2-2.4-6.2v-1.3l6.6-2.2V95.9z"/>
	<path d="M118.6,65.3L107,69.3V77l10.9-3.7v5.4L107,82.5v8.9l12.1-4.1v5.4L100.5,99v-33l18.2-6.2V65.3z"/>
	<path d="M126.7,57.1l3.6,23.2l0.1,0l3.8-25.7l6.3-2.1l3.8,23.1l0.1,0l3.6-25.6l6.3-2.1l-5.9,35l-7.3,2.5l-3.6-22.7l-0.1,0
		l-3.6,25.1l-7.3,2.5l-5.9-31L126.7,57.1z"/>
	<path d="M170.6,42.3l8.6,30l-6.8,2.3l-1.5-6.5l-8.6,2.9l-1.5,7.5l-6.8,2.3l8.6-35.9L170.6,42.3z M169.7,63.1l-3.1-13.8l-0.1,0
		l-3.1,15.9L169.7,63.1z"/>
	<path d="M193.6,34.5c2.7-0.9,4.9-0.9,6.4-0.1c1.5,0.9,2.3,2.8,2.3,5.6c0,2.2-0.4,4.2-1.3,5.9c-0.9,1.7-2.2,3.1-4.1,4.1v0.1
		c1.6-0.3,2.8-0.2,3.6,0.4c0.8,0.6,1.2,1.8,1.4,3.5c0.1,0.6,0.1,1.2,0.1,2c0,0.7,0.1,1.5,0.1,2.4c0.1,1.7,0.2,3,0.3,3.9
		c0.2,0.9,0.6,1.4,1.2,1.5v0.3l-7.1,2.4c-0.3-0.3-0.5-0.8-0.6-1.4c-0.1-0.6-0.2-1.2-0.2-1.8l-0.2-6.3c-0.1-1.3-0.4-2.2-1-2.7
		c-0.6-0.5-1.5-0.6-2.9-0.1l-3.5,1.2v13.9l-6.6,2.2v-33L193.6,34.5z M190.7,49.8c1.6-0.5,2.8-1.3,3.6-2.4c0.8-1,1.3-2.5,1.3-4.2
		c0-3-1.5-4.1-4.6-3l-3.1,1v9.5L190.7,49.8z"/>
	<path d="M216.7,26.7l4.6,21.7l0.1,0l4.7-24.9l9.7-3.3v33l-6,2V28.9l-0.1,0l-5.8,28.3l-5.1,1.7L213,34.5l-0.1,0v26.3l-6,2V30
		L216.7,26.7z"/>
	<path d="M240.8,18.5l6.6-2.2v33l-6.6,2.2V18.5z"/>
	<path d="M267.7,31.9L267.7,31.9l0.1-22.6l6-2v33l-7.5,2.5l-8-20.4l-0.1,0v23.1l-6,2v-33l7.6-2.6L267.7,31.9z"/>
	<path d="M292.6,8.8c-0.1-0.6-0.4-1.1-0.7-1.6c-0.3-0.4-0.7-0.8-1.2-0.9c-0.5-0.2-1-0.2-1.7,0c-1.6,0.5-2.7,1.8-3.4,3.8
		c-0.7,2-1,5.1-1,9.2c0,2,0.1,3.7,0.2,5.3c0.1,1.6,0.3,2.8,0.7,3.9c0.3,1,0.8,1.7,1.4,2.1c0.6,0.4,1.4,0.4,2.3,0.1
		c0.4-0.1,0.8-0.4,1.3-0.8c0.5-0.4,0.9-0.8,1.3-1.4c0.4-0.6,0.8-1.2,1-2c0.3-0.8,0.4-1.6,0.4-2.5v-3.4l-4.3,1.5v-4.9l10.6-3.6v17.8
		l-4.8,1.6v-3l-0.1,0c-0.8,1.6-1.7,2.8-2.8,3.7c-1.1,0.9-2.4,1.6-4,2.2c-2,0.7-3.6,0.9-4.9,0.6c-1.3-0.3-2.2-1-3-2.3
		c-0.7-1.2-1.2-2.9-1.4-5c-0.2-2.1-0.4-4.6-0.4-7.4c0-2.8,0.2-5.3,0.5-7.5c0.3-2.2,0.9-4.2,1.8-5.8c0.8-1.7,2-3.1,3.4-4.3
		c1.4-1.2,3.1-2.1,5.2-2.8c3.6-1.2,6.2-1.2,7.7,0.1c1.6,1.3,2.4,3.6,2.4,6.9l-6.3,2.1C292.8,10,292.7,9.4,292.6,8.8z"/>
	<path d="M102,106.7v5.6l3.4-1.2v-5.6l2.9-1v14.7l-2.9,1v-6.5l-3.4,1.2v6.5l-2.9,1v-14.7L102,106.7z"/>
	<path d="M110.2,108.2c0.1-1,0.3-1.9,0.7-2.7c0.3-0.8,0.8-1.5,1.5-2.1c0.7-0.6,1.5-1.1,2.6-1.5s2-0.5,2.6-0.3
		c0.7,0.2,1.2,0.5,1.5,1.1c0.3,0.6,0.6,1.3,0.7,2.2c0.1,0.9,0.2,1.9,0.2,3c0,1.1-0.1,2.2-0.2,3.1c-0.1,1-0.3,1.9-0.7,2.6
		c-0.3,0.8-0.8,1.5-1.5,2.1c-0.7,0.6-1.5,1.1-2.6,1.4c-1.1,0.4-2,0.5-2.6,0.4c-0.7-0.1-1.2-0.5-1.5-1c-0.3-0.6-0.6-1.3-0.7-2.2
		c-0.1-0.9-0.2-1.9-0.2-3C110,110.2,110.1,109.2,110.2,108.2z M113,112.9c0,0.7,0.1,1.2,0.3,1.6c0.1,0.4,0.3,0.6,0.6,0.7
		c0.3,0.1,0.6,0.1,1-0.1c0.4-0.1,0.8-0.4,1-0.7c0.3-0.3,0.5-0.7,0.6-1.2c0.1-0.5,0.2-1.1,0.3-1.8c0-0.7,0.1-1.6,0.1-2.6
		c0-1,0-1.8-0.1-2.5c0-0.7-0.1-1.2-0.3-1.6c-0.1-0.4-0.3-0.6-0.6-0.8c-0.3-0.1-0.6-0.1-1,0.1c-0.4,0.1-0.8,0.4-1,0.7
		c-0.3,0.3-0.5,0.7-0.6,1.2c-0.1,0.5-0.2,1.1-0.3,1.8c0,0.7-0.1,1.6-0.1,2.5C113,111.3,113,112.2,113,112.9z"/>
	<path d="M124,109.8c0,0.3,0,0.6,0.1,0.9c0.1,0.3,0.2,0.5,0.3,0.6c0.1,0.1,0.3,0.2,0.6,0.3c0.3,0,0.6,0,0.9-0.2
		c0.4-0.2,0.9-0.4,1.2-0.9c0.4-0.4,0.5-0.9,0.5-1.6c0-0.3,0-0.6-0.1-0.8c-0.1-0.2-0.2-0.4-0.4-0.5c-0.2-0.1-0.5-0.2-0.8-0.3
		c-0.3,0-0.7-0.1-1.2-0.1c-0.7,0-1.2,0-1.7-0.1c-0.5-0.1-0.9-0.3-1.2-0.5c-0.3-0.2-0.6-0.6-0.7-1c-0.1-0.4-0.2-0.9-0.2-1.5
		c0-1.5,0.4-2.7,1.2-3.7c0.8-1,1.9-1.7,3.3-2.2c0.7-0.2,1.3-0.4,1.8-0.4c0.5,0,1,0,1.4,0.2c0.4,0.2,0.7,0.5,0.9,0.9
		c0.2,0.4,0.3,1,0.3,1.7v0.4l-2.8,1c0-0.7-0.1-1.2-0.4-1.5c-0.2-0.3-0.7-0.3-1.2-0.2c-0.3,0.1-0.6,0.3-0.8,0.4
		c-0.2,0.2-0.4,0.4-0.5,0.6c-0.1,0.2-0.2,0.4-0.3,0.6c0,0.2-0.1,0.4-0.1,0.7c0,0.5,0.1,0.8,0.3,1c0.2,0.2,0.6,0.4,1.2,0.4l2.3,0.2
		c0.6,0.1,1,0.2,1.4,0.3c0.4,0.1,0.6,0.3,0.8,0.6c0.2,0.2,0.4,0.5,0.4,0.9c0.1,0.3,0.1,0.7,0.1,1.2c0,1.6-0.4,2.8-1.3,3.8
		c-0.9,1-2.1,1.8-3.7,2.3c-1.7,0.6-2.8,0.6-3.6,0.1c-0.7-0.5-1.1-1.4-1.1-2.8v-0.6l2.9-1V109.8z"/>
	<path d="M142.3,93c0.7-0.3,1.4-0.3,1.9-0.3c0.5,0.1,0.9,0.3,1.2,0.6c0.3,0.3,0.5,0.7,0.7,1.2c0.1,0.5,0.2,1,0.2,1.6
		c0,0.8-0.1,1.5-0.3,2.1c-0.2,0.6-0.5,1.2-0.9,1.7c-0.4,0.5-0.9,0.9-1.5,1.3c-0.6,0.4-1.2,0.7-1.9,0.9l-1.6,0.5v5.9l-2.9,1V94.8
		L142.3,93z M141.4,100c0.6-0.2,1.1-0.5,1.4-1c0.4-0.5,0.5-1.1,0.5-1.9c0-0.7-0.2-1.3-0.5-1.5c-0.3-0.3-0.8-0.3-1.6,0l-1.2,0.4v4.5
		L141.4,100z"/>
	<path d="M155.8,90.9l-5.2,1.8v3.5l4.9-1.7v2.4l-4.9,1.7v4l5.4-1.8v2.4l-8.3,2.8V91.2l8.1-2.8V90.9z"/>
	<path d="M164.4,95.6L164.4,95.6l0-10.1l2.7-0.9v14.7l-3.3,1.1l-3.6-9.1l0,0v10.3l-2.7,0.9V87.9l3.4-1.1L164.4,95.6z"/>
	<path d="M177.7,83.5l-3.2,1.1v12.3l-2.9,1V85.5l-3.2,1.1v-2.4l9.3-3.1V83.5z"/>
	<path d="M179.1,80.6l2.9-1v14.7l-2.9,1V80.6z"/>
	<path d="M190.7,76.6l3.8,13.4l-3.1,1l-0.7-2.9l-3.9,1.3l-0.7,3.3l-3.1,1l3.8-16L190.7,76.6z M190.3,86l-1.4-6.2l0,0l-1.4,7.1
		L190.3,86z"/>
	<path d="M205.4,71.7c1-0.3,1.8-0.5,2.5-0.3c0.6,0.1,1.1,0.4,1.5,1c0.3,0.5,0.6,1.2,0.7,2c0.1,0.8,0.2,1.8,0.2,2.9
		c0,1.3-0.1,2.4-0.2,3.5c-0.2,1-0.4,1.9-0.8,2.6c-0.4,0.7-0.9,1.4-1.5,1.9c-0.6,0.5-1.4,0.9-2.4,1.3l-4.6,1.6V73.3L205.4,71.7z
		 M204.8,84.4c0.5-0.2,0.9-0.4,1.2-0.7c0.3-0.3,0.6-0.7,0.7-1.1c0.2-0.5,0.3-1.1,0.4-1.8c0.1-0.7,0.1-1.5,0.1-2.5
		c0-0.8,0-1.6-0.1-2.2c-0.1-0.6-0.2-1.1-0.3-1.5c-0.2-0.4-0.4-0.6-0.8-0.7c-0.3-0.1-0.8-0.1-1.3,0.1l-1.2,0.4v10.4L204.8,84.4z"/>
	<path d="M220.2,69l-5.2,1.8v3.5l4.9-1.7v2.4l-4.9,1.7v4l5.4-1.8v2.4l-8.3,2.8V69.4l8.1-2.8V69z"/>
	<path d="M228.8,73.8L228.8,73.8l0-10.1l2.7-0.9v14.7l-3.3,1.1l-3.6-9.1l0,0v10.3l-2.7,0.9V66l3.4-1.1L228.8,73.8z"/>
	<path d="M237.8,75.4c0-0.6,0.1-1.3,0.2-1.9c0.1-0.6,0.3-1.2,0.6-1.8c0.3-0.6,0.6-1.2,1-1.8c0.4-0.6,0.9-1.3,1.4-1.9l1.2-1.5
		c0.3-0.4,0.6-0.8,0.8-1.1c0.2-0.3,0.3-0.6,0.5-0.9c0.1-0.3,0.2-0.6,0.2-0.9c0-0.3,0.1-0.6,0.1-1c0-1.2-0.5-1.7-1.4-1.3
		c-0.4,0.1-0.7,0.3-0.9,0.5c-0.2,0.2-0.4,0.5-0.5,0.8c-0.1,0.3-0.2,0.6-0.2,1c0,0.4-0.1,0.7-0.1,1.1l-2.8,1V65
		c0-1.4,0.4-2.5,1.1-3.5c0.7-1,1.9-1.7,3.4-2.2c1.5-0.5,2.6-0.5,3.3-0.1c0.7,0.4,1.1,1.3,1.1,2.6c0,0.5,0,0.9-0.1,1.4
		c-0.1,0.4-0.2,0.9-0.4,1.3c-0.2,0.4-0.4,0.9-0.7,1.3c-0.3,0.4-0.6,0.9-1,1.4l-1.6,2.1c-0.4,0.5-0.8,1.1-1,1.5
		c-0.2,0.5-0.4,0.8-0.5,1.1l5.4-1.8v2.3L237.8,75.4z"/>
	<path d="M250.8,68.7c0.2,0.4,0.6,0.5,1.3,0.2c0.4-0.1,0.6-0.3,0.8-0.5c0.2-0.2,0.4-0.4,0.5-0.7c0.1-0.3,0.2-0.5,0.2-0.8
		c0-0.3,0.1-0.6,0.1-0.9c0-0.3,0-0.6-0.1-0.9c0-0.3-0.1-0.5-0.3-0.7s-0.3-0.3-0.6-0.4c-0.2-0.1-0.6,0-1,0.1l-1,0.3v-1.9l1-0.3
		c0.3-0.1,0.6-0.3,0.8-0.5c0.2-0.2,0.4-0.4,0.5-0.7c0.1-0.3,0.2-0.5,0.3-0.8c0.1-0.3,0.1-0.6,0.1-0.9c0-0.7-0.1-1.2-0.3-1.4
		c-0.2-0.2-0.6-0.2-1.1-0.1c-0.3,0.1-0.6,0.3-0.8,0.4c-0.2,0.2-0.3,0.4-0.5,0.7c-0.1,0.3-0.2,0.5-0.2,0.8c0,0.3-0.1,0.6-0.1,1
		l-2.7,0.9c0-1.5,0.4-2.7,1.1-3.6c0.7-1,1.8-1.7,3.2-2.1c1.3-0.4,2.3-0.5,3.1-0.1c0.7,0.4,1.1,1.2,1.1,2.5c0,0.9-0.2,1.7-0.6,2.4
		c-0.4,0.7-0.9,1.2-1.6,1.6v0c0.9-0.2,1.6,0,2,0.5c0.4,0.5,0.6,1.2,0.6,2.1c0,0.5-0.1,1-0.2,1.6c-0.1,0.6-0.4,1.1-0.7,1.7
		c-0.4,0.5-0.8,1.1-1.5,1.5c-0.6,0.5-1.4,0.9-2.4,1.2c-1.4,0.5-2.4,0.4-3.1-0.1c-0.7-0.5-1-1.5-1-2.9v-0.1l2.8-1
		C250.4,67.7,250.6,68.3,250.8,68.7z"/>
	<path d="M260.8,67.6l-2.7,0.9v-3.2l2.7-0.9V67.6z"/>
	<path d="M271.4,49.2l2.1,9.7l0,0l2.1-11.1l4.3-1.5v14.7l-2.7,0.9V50.2l0,0l-2.6,12.6l-2.3,0.8l-2.6-10.9l0,0v11.8l-2.7,0.9V50.7
		L271.4,49.2z"/>
	<path d="M288.5,43.4l3.8,13.4l-3.1,1l-0.7-2.9l-3.9,1.3l-0.7,3.3l-3.1,1l3.8-16L288.5,43.4z M288.2,52.8l-1.4-6.2l0,0l-1.4,7.1
		L288.2,52.8z"/>
	<path d="M300.9,49.9c0,1.6-0.4,2.8-1.1,3.7c-0.7,0.9-1.8,1.6-3.3,2.1c-0.8,0.3-1.4,0.4-1.9,0.3c-0.5,0-0.9-0.2-1.2-0.5
		c-0.3-0.3-0.5-0.7-0.6-1.2c-0.1-0.5-0.2-1-0.2-1.6v-0.6l2.7-0.9v0.5c0,0.8,0.1,1.3,0.3,1.7c0.2,0.3,0.5,0.4,1,0.2
		c0.5-0.2,0.9-0.5,1-0.9c0.2-0.4,0.3-1,0.3-1.8V40.2l2.9-1V49.9z"/>
</g>
</svg>
